<?xml version="1.0" encoding="UTF-8" standalone="no"?>
<svg viewBox="0 0 424 424" xmlns="http://www.w3.org/2000/svg" xmlns:xlink="http://www.w3.org/1999/xlink">
<defs>
<filter id="filter5738">
<feGaussianBlur stdDeviation="1.03922"/>
</filter>
<linearGradient id="linearGradient5639">
<stop offset="0" stop-color="#888a85"/>
<stop offset="1" stop-color="#d3d7cf"/>
</linearGradient>
<linearGradient id="linearGradient5575">
<stop offset="0" stop-color="#f2f2f2"/>
<stop offset="1" stop-color="#f2f2f2" stop-opacity="0"/>
</linearGradient>
<linearGradient gradientUnits="userSpaceOnUse" id="linearGradient5494" x1="341.19437" x2="666.1424" y1="150.47923" y2="435.01581">
<stop offset="0" stop-color="#72cccf"/>
<stop offset="1" stop-color="#207a87"/>
</linearGradient>
<linearGradient gradientUnits="userSpaceOnUse" id="linearGradient5504" x1="666.1424" x2="373.36926" y1="435.01581" y2="147.4841">
<stop offset="0" stop-color="#72cccf" stop-opacity=".65269"/>
<stop offset="1" stop-color="#fcffff" stop-opacity=".23952"/>
</linearGradient>
<linearGradient gradientUnits="userSpaceOnUse" id="linearGradient5563" x1="383.95898" x2="372.04501" y1="365.7879" y2="231.08406">
<stop offset="0" stop-color="#8b0000"/>
<stop offset="1" stop-color="#a40000" stop-opacity="0"/>
</linearGradient>
<linearGradient gradientUnits="userSpaceOnUse" id="linearGradient5571" x1="382.95312" x2="372.03125" y1="372.0625" y2="523.3988">
<stop offset="0" stop-color="#173560"/>
<stop offset="1" stop-color="#204a87" stop-opacity="0"/>
</linearGradient>
<linearGradient gradientUnits="userSpaceOnUse" id="linearGradient5601" x1="363.45288" x2="386.54501" y1="362.6059" y2="386.54501">
<stop offset="0" stop-color="#eeeeec"/>
<stop offset="1" stop-color="#d3d7cf" stop-opacity="0"/>
</linearGradient>
<linearGradient gradientTransform="matrix(.84331,-.53743,.53743,.84331,-141.65233,258.24684)" gradientUnits="userSpaceOnUse" id="linearGradient5661" x2="0">
<stop offset="0" stop-color="#888a85"/>
<stop offset="1" stop-color="#babdb6"/>
</linearGradient>
<linearGradient gradientUnits="userSpaceOnUse" id="linearGradient5782" x1="767.83521" x2="499.9245" y1="775.13037" y2="322.96481">
<stop offset="0" stop-color="#207a87"/>
<stop offset="1" stop-color="#207a87" stop-opacity="0"/>
</linearGradient>
<linearGradient gradientUnits="userSpaceOnUse" id="linearGradient5784" x1="686.40735" x2="466.00363" y1="493.45346" y2="129.17961">
<stop offset="0" stop-color="#72cccf" stop-opacity="0"/>
<stop offset="1" stop-color="#c0b" stop-opacity="0"/>
</linearGradient>
<linearGradient gradientUnits="userSpaceOnUse" id="linearGradient5581" x2="0" xlink:href="#linearGradient5575" y1="357.94083" y2="220.44211"/>
<linearGradient gradientUnits="userSpaceOnUse" id="linearGradient5585" x2="0" xlink:href="#linearGradient5575" y1="386.34455" y2="521.9986"/>
<linearGradient gradientUnits="userSpaceOnUse" id="linearGradient5609" x1="286.02469" x2="307.95575" xlink:href="#linearGradient5639" y1="335.02875" y2="370.92868"/>
<linearGradient gradientUnits="userSpaceOnUse" id="linearGradient5659" x1="372.04503" x2="372.04505" xlink:href="#linearGradient5639" y1="372.04501" y2="372.04503"/>
<radialGradient cx="372" cy="490.09003" gradientTransform="matrix(1,0,0,.92248,0,37.99148)" gradientUnits="userSpaceOnUse" id="radialGradient5764" r="64.5">
<stop offset="0" stop-color="#feffff"/>
<stop offset="1" stop-color="#feffff" stop-opacity="0"/>
</radialGradient>
<radialGradient cx="372" cy="490.09003" gradientTransform="matrix(1,0,0,.92188,0,38.28828)" gradientUnits="userSpaceOnUse" id="radialGradient5766" r="64">
<stop offset="0"/>
<stop offset="1" stop-color="#feffff" stop-opacity="0"/>
</radialGradient>
<radialGradient cx="372" cy="490.09003" gradientTransform="matrix(1,0,0,.92188,0,38.28828)" gradientUnits="userSpaceOnUse" id="radialGradient5838" r="64">
<stop offset="0" stop-color="#fcfefe"/>
<stop offset="1" stop-color="#fcfefe" stop-opacity="0"/>
</radialGradient>
</defs>
<g transform="translate(-158.04501,-470.31719)">
<path d="m462.00002,372.04501c0,33.66452-40.27423,60.95501-89.95501,60.95501s-89.955-27.29049-89.955-60.95501 40.27423-60.955 89.955-60.955 89.95501,27.29049 89.95501,60.955z" fill="none" stroke="#000" stroke-width=".51068" transform="matrix(2.23231,0,0,3.29436,-458.47524,-545.33209)"/>
<path d="m371.38875,480.38974v7.5h1.3125v-7.5h-1.3125z"/>
<path d="m372.70126,880.24465v-7.5h-1.3125v7.5h1.3125z"/>
<path d="m336.68168,483.54104 1.30236,7.38606 1.29256-.22791-1.30236-7.38606-1.29256.22791z"/>
<path d="m407.40833,877.09334-1.30236-7.38606-1.29256.22792 1.30236,7.38606 1.29256-.22792z"/>
<path d="m303.04912,492.67129 2.56515,7.04769 1.23334-.4489-2.56515-7.04769-1.23334.4489z"/>
<path d="m441.04091,867.96309-2.56515-7.04769-1.23335.4489 2.56515,7.04769 1.23335-.4489z"/>
<path d="m271.51295,507.50306 3.75,6.49519 1.13666-.65625-3.75-6.49519-1.13666.65625z"/>
<path d="m472.57708,853.13132-3.75001-6.49519-1.13665.65625 3.75,6.49519 1.13666-.65625z"/>
<path d="m243.0314,527.58571 4.82091,5.74533 1.00543-.84365-4.82091-5.74534-1.00543.84366z"/>
<path d="m501.05863,833.04868-4.82091-5.74534-1.00544.84366 4.82091,5.74533 1.00544-.84365z"/>
<path d="m218.46986,552.30903 5.74534,4.8209 .84365-1.00543-5.74533-4.82091-.84366,1.00544z"/>
<path d="m525.62016,808.32536-5.74533-4.8209-.84366,1.00543 5.74533,4.82091 .84366-1.00544z"/>
<path d="m198.57463,580.92181 6.49519,3.75 .65625-1.13666-6.49519-3.75-.65625,1.13666z"/>
<path d="m545.5154,779.71259-6.49519-3.75-.65625,1.13666 6.49519,3.75 .65625-1.13666z"/>
<path d="m183.95021,612.55466 7.04769,2.56515 .4489-1.23335-7.04769-2.56515-.4489,1.23335z"/>
<path d="m560.13982,748.07973-7.04769-2.56515-.4489,1.23335 7.04769,2.56515 .4489-1.23335z"/>
<path d="m175.04095,646.24644 7.38606,1.30236 .22791-1.29256-7.38605-1.30236-.22792,1.29256z"/>
<path d="m569.04909,714.38794-7.38606-1.30236-.22792,1.29256 7.38606,1.30236 .22792-1.29256z"/>
<path d="m172.11756,680.97344h7.5v-1.3125h-7.5v1.3125z"/>
<path d="m571.97247,679.66092h-7.5v1.3125h7.5v-1.3125z"/>
<path d="m175.26886,715.68047 7.38606-1.30236-.22791-1.29256-7.38606,1.30236 .22791,1.29256z"/>
<path d="m568.82116,644.95382-7.38606,1.30236 .22792,1.29256 7.38606-1.30236-.22792-1.29256z"/>
<path d="m184.39911,749.31306 7.0477-2.56515-.44891-1.23334-7.04769,2.56515 .4489,1.23334z"/>
<path d="m559.69091,611.32127-7.04769,2.56515 .4489,1.23335 7.04769-2.56516-.4489-1.23334z"/>
<path d="m199.23089,780.84919 6.49519-3.75-.65625-1.13665-6.49519,3.75 .65625,1.13665z"/>
<path d="m544.85914,579.78507-6.49519,3.75 .65625,1.13666 6.49519-3.75-.65625-1.13666z"/>
<path d="m219.31353,809.33079 5.74533-4.82091-.84366-1.00544-5.74533,4.82091 .84366,1.00544z"/>
<path d="m524.77649,551.30356-5.74534,4.82091 .84366,1.00543 5.74534-4.82091-.84366-1.00543z"/>
<path d="m244.03684,833.89229 4.82091-5.74533-1.00543-.84366-4.82091,5.74533 1.00543.84366z"/>
<path d="m500.05317,526.74199-4.8209,5.74534 1.00543.84365 4.82091-5.74533-1.00544-.84366z"/>
<path d="m272.64961,853.78755 3.75-6.4952-1.13666-.65625-3.75,6.4952 1.13666.65625z"/>
<path d="m471.44039,506.84678-3.75,6.49519 1.13666.65625 3.75-6.49519-1.13666-.65625z"/>
<path d="m304.28247,868.41195 2.56515-7.04769-1.23335-.4489-2.56515,7.04769 1.23335.4489z"/>
<path d="m439.80754,492.22234-2.56515,7.04769 1.23334.44891 2.56515-7.0477-1.23334-.4489z"/>
<path d="m337.97425,877.32125 1.30236-7.38606-1.29256-.22792-1.30236,7.38606 1.29256.22792z"/>
<g fill="#2e3436">
<g fill="#2e3436" font-family="FreeSans" font-size="12" letter-spacing="0" text-anchor="middle" transform="translate(64.15231,371.01453)" word-spacing="0">
<path d="m304.67616,124.61084c0-.71199.06-1.33999.18-1.884s.272-.96799.456-1.272c.18399-.31199.40399-.56399.66-.756s.49999-.31999.732-.384c.23999-.064.49199-.096.756-.096 1.85599,1e-005 2.78399,1.48801 2.784,4.464-1e-005,1.40001-.24001,2.47201-.72,3.216-.47201.736-1.16001,1.104-2.064,1.104-.91201,0-1.60401-.372-2.076-1.116-.472-.75199-.708-1.84399-.708-3.276m4.488-.024c-1e-005-2.28799-.56801-3.43199-1.704-3.432s-1.70401,1.15601-1.704,3.468c-1e-005,2.33601.55999,3.504 1.68,3.504 .59199,0 1.02799-.288 1.308-.864s.41999-1.46799.42-2.676"/>
</g>
<g fill="#2e3436" font-family="FreeSans" font-size="12" letter-spacing="0" text-anchor="middle" transform="matrix(-1,0,0,-1,679.9377,989.61981)" word-spacing="0">
<path d="m300.58847,122.66684h-1.884v-.756c.816-.10399 1.348-.24799 1.596-.432s.464-.60399.648-1.26h.696v8.508h-1.056v-6.06"/>
<path d="m308.85216,124.25084c.97599.46401 1.46399,1.17201 1.464,2.124-1e-005,.77601-.26801,1.408-.804,1.896-.52801.488-1.21201.732-2.052.732s-1.52801-.244-2.064-.732c-.528-.496-.792-1.13199-.792-1.908 0-.94399.484-1.64799 1.452-2.112-.43201-.27199-.732-.53599-.9-.792s-.252-.57999-.252-.972c0-.66399.236-1.20799.708-1.632 .47999-.42399 1.09599-.63599 1.848-.636s1.36399.21201 1.836.636c.47999.42401.71999.96801.72,1.632-1e-005,.40001-.084.72801-.252.984s-.47201.51601-.912.78m-.324-2.724c-.26401-.24799-.62001-.37199-1.068-.372s-.80801.12401-1.08.372c-.26401.24001-.39601.56401-.396.972-1e-005,.40001.13199.72401.396.972 .27199.24001.63199.36001 1.08.36 .43999,1e-005 .79599-.11999 1.068-.36s.40799-.55999.408-.96c-1e-005-.41599-.13601-.74399-.408-.984m.216,3.66c-.32801-.31199-.75601-.46799-1.284-.468s-.95601.15601-1.284.468c-.32801.30401-.49201.70401-.492,1.2s.15999.9.48,1.212c.32799.312.75199.468 1.272.468 .53599,0 .96799-.152 1.296-.456 .33599-.312.50399-.71999.504-1.224s-.16401-.89599-.492-1.2"/>
<path d="m311.35584,124.61084c0-.71199.06-1.33999.18-1.884s.272-.96799.456-1.272c.184-.31199.404-.56399.66-.756s.5-.31999.732-.384c.24-.064.492-.096.756-.096 1.856,1e-005 2.784,1.48801 2.784,4.464 0,1.40001-.24,2.47201-.72,3.216-.472.736-1.16,1.104-2.064,1.104-.912,0-1.604-.372-2.076-1.116-.472-.75199-.708-1.84399-.708-3.276m4.488-.024c0-2.28799-.568-3.43199-1.704-3.432s-1.704,1.15601-1.704,3.468c0,2.33601.56,3.504 1.68,3.504 .592,0 1.028-.288 1.308-.864s.42-1.46799.42-2.676"/>
</g>
<g fill="#2e3436" font-family="FreeSans" font-size="12" letter-spacing="0" text-anchor="middle" transform="matrix(.98481,-.17365,.17365,.98481,15.12004,429.17854)" word-spacing="0">
<path d="m300.72047,121.14284c-.608,1e-005-1.028.16801-1.26.504-.224.32801-.344.76801-.36,1.32h-1.056c.04-1.83199.928-2.74799 2.664-2.748 .80799,1e-005 1.43999.20801 1.896.624s.69599.98801.696,1.716c-1e-005,.86401-.39601,1.45201-1.188,1.764 .51199.17601.87999.42401 1.104.744 .22399.31201.33599.74001.336,1.284-1e-005,.80801-.26401,1.452-.792,1.932-.52001.48-1.21601.72-2.088.72-1.744,0-2.68-.916-2.808-2.748h1.056c.04.61601.204,1.072.492,1.368s.72.444 1.296.444c.55199,0 .98399-.148 1.296-.444s.46799-.72399.468-1.26c-1e-005-1.03199-.58801-1.54799-1.764-1.548l-.444.012h-.132v-.9c.76-.016 1.29599-.11199 1.608-.288 .31999-.17599.47999-.52399.48-1.044-1e-005-.44799-.13601-.79999-.408-1.056-.26401-.26399-.628-.39599-1.092-.396"/>
<path d="m309.87216,120.21884v1.044h-3.54l-.336,2.376c.47199-.34399.99599-.51599 1.572-.516 .81599,1e-005 1.47599.26401 1.98.792 .51199.52001.76799,1.20001.768,2.04-1e-005,.89601-.27201,1.628-.816,2.196s-1.24401.852-2.1.852c-.32801,0-.63201-.036-.912-.108-.27201-.072-.50001-.156-.684-.252s-.34001-.236-.492-.396c-.144-.168-.256-.312-.336-.432-.072-.128-.144-.284-.216-.468-.064-.19199-.104-.32399-.12-.396s-.036-.17599-.06-.312h1.056c.24799.952.82799,1.428 1.74,1.428 .57599,0 1.02799-.176 1.356-.528 .33599-.35199.50399-.83199.504-1.44-1e-005-.63199-.16801-1.12799-.504-1.488-.33601-.36799-.78801-.55199-1.356-.552-.32801,1e-005-.60801.06-.84.18-.23201.11201-.47201.31601-.72.612h-.972l.636-4.632h4.392"/>
<path d="m311.35584,124.61084c0-.71199.06-1.33999.18-1.884s.272-.96799.456-1.272c.184-.31199.404-.56399.66-.756s.5-.31999.732-.384c.24-.064.492-.096.756-.096 1.856,1e-005 2.784,1.48801 2.784,4.464 0,1.40001-.24,2.47201-.72,3.216-.472.736-1.16,1.104-2.064,1.104-.912,0-1.604-.372-2.076-1.116-.472-.75199-.708-1.84399-.708-3.276m4.488-.024c0-2.28799-.568-3.43199-1.704-3.432s-1.704,1.15601-1.704,3.468c0,2.33601.56,3.504 1.68,3.504 .592,0 1.028-.288 1.308-.864s.42-1.46799.42-2.676"/>
</g>
<g fill="#2e3436" font-family="FreeSans" font-size="12" letter-spacing="0" text-anchor="middle" transform="matrix(-.98481,.17365,-.17365,-.98481,728.96995,931.4558)" word-spacing="0">
<path d="m300.58847,122.66684h-1.884v-.756c.816-.10399 1.348-.24799 1.596-.432s.464-.60399.648-1.26h.696v8.508h-1.056v-6.06"/>
<path d="m310.40016,120.21884v.888c-.96001,1.28001-1.72001,2.53201-2.28,3.756-.55201,1.21601-.94401,2.504-1.176,3.864h-1.128c.31999-1.4.72799-2.63199 1.224-3.696s1.25199-2.31999 2.268-3.768h-4.596v-1.044h5.688"/>
<path d="m311.35584,124.61084c0-.71199.06-1.33999.18-1.884s.272-.96799.456-1.272c.184-.31199.404-.56399.66-.756s.5-.31999.732-.384c.24-.064.492-.096.756-.096 1.856,1e-005 2.784,1.48801 2.784,4.464 0,1.40001-.24,2.47201-.72,3.216-.472.736-1.16,1.104-2.064,1.104-.912,0-1.604-.372-2.076-1.116-.472-.75199-.708-1.84399-.708-3.276m4.488-.024c0-2.28799-.568-3.43199-1.704-3.432s-1.704,1.15601-1.704,3.468c0,2.33601.56,3.504 1.68,3.504 .592,0 1.028-.288 1.308-.864s.42-1.46799.42-2.676"/>
</g>
<g fill="#2e3436" font-family="FreeSans" font-size="12" letter-spacing="0" text-anchor="middle" transform="matrix(.93969,-.34202,.34202,.93969,-23.06723,494.97327)" word-spacing="0">
<path d="m300.73219,121.14284c-.60801,1e-005-1.028.16801-1.26.504-.224.32801-.344.76801-.36,1.32h-1.056c.04-1.83199.928-2.74799 2.664-2.748 .80799,1e-005 1.43999.20801 1.896.624s.69599.98801.696,1.716c-1e-005,.86401-.39601,1.45201-1.188,1.764 .51199.17601.87999.42401 1.104.744 .22399.31201.33599.74001.336,1.284-1e-005,.80801-.26401,1.452-.792,1.932-.52001.48-1.21601.72-2.088.72-1.744,0-2.68-.916-2.808-2.748h1.056c.04.61601.204,1.072.492,1.368s.71999.444 1.296.444c.55199,0 .98399-.148 1.296-.444s.46799-.72399.468-1.26c-1e-005-1.03199-.58801-1.54799-1.764-1.548l-.444.012h-.132v-.9c.75999-.016 1.29599-.11199 1.608-.288 .31999-.17599.47999-.52399.48-1.044-1e-005-.44799-.13601-.79999-.408-1.056-.26401-.26399-.62801-.39599-1.092-.396"/>
<path d="m308.09587,126.68684h-3.58799v-1.116l3.86399-5.352h.78001v5.52h1.25999v.948h-1.25999v2.04h-1.05601v-2.04m0-.948v-3.72l-2.664,3.72h2.664"/>
<path d="m311.34413,124.61084c-1e-005-.71199.06-1.33999.18-1.884s.27199-.96799.45599-1.272c.184-.31199.404-.56399.66-.756s.5-.31999.732-.384c.24-.064.492-.096.756-.096 1.856,1e-005 2.784,1.48801 2.784,4.464 0,1.40001-.24,2.47201-.72,3.216-.472.736-1.16,1.104-2.064,1.104-.912,0-1.604-.372-2.076-1.116-.472-.75199-.708-1.84399-.70799-3.276m4.488-.024c-1e-005-2.28799-.56801-3.43199-1.70401-3.432s-1.704,1.15601-1.704,3.468c0,2.33601.56,3.504 1.68,3.504 .592,0 1.028-.288 1.308-.864s.42-1.46799.42001-2.676"/>
</g>
<g fill="#2e3436" font-family="FreeSans" font-size="12" letter-spacing="0" text-anchor="middle" transform="matrix(-.93969,.34202,-.34202,-.93969,767.15723,865.66107)" word-spacing="0">
<path d="m300.58847,122.66684h-1.884v-.756c.816-.10399 1.348-.24799 1.596-.432s.464-.60399.648-1.26h.696v8.508h-1.056v-6.06"/>
<path d="m304.67616,124.85084c0-.75199.068-1.41199.204-1.98 .136-.57599.304-1.02799.504-1.356 .20799-.32799.45199-.59199.732-.792 .28799-.20799.55599-.34399.804-.408 .25599-.064.52399-.096.804-.096 .64799,1e-005 1.18399.19601 1.608.588 .43199.39201.69999.93601.804,1.632h-1.056c-.088-.40799-.25601-.72399-.504-.948s-.55601-.33599-.924-.336c-.60801,1e-005-1.07601.28001-1.404.84-.32001.55201-.48401,1.34801-.492,2.388 .46399-.63199 1.11599-.94799 1.956-.948 .75999,1e-005 1.38399.25201 1.872.756s.73199,1.15201.732,1.944c-1e-005,.83201-.26401,1.52-.792,2.064-.52001.536-1.18401.804-1.992.804-1.90401,0-2.856-1.384-2.856-4.152m2.904-.48c-.52001,1e-005-.94401.16801-1.272.504-.32801.32801-.49201.75601-.492,1.284-1e-005,.54401.16399,1.00001.492,1.368 .32799.36.73999.54 1.236.54 .48799,0 .89199-.172 1.212-.516 .31999-.35199.47999-.79599.48-1.332-1e-005-.56799-.14801-1.01599-.444-1.344-.29601-.33599-.70001-.50399-1.212-.504"/>
<path d="m311.35584,124.61084c0-.71199.06-1.33999.18-1.884s.272-.96799.456-1.272c.184-.31199.404-.56399.66-.756s.5-.31999.732-.384c.24-.064.492-.096.756-.096 1.856,1e-005 2.784,1.48801 2.784,4.464 0,1.40001-.24,2.47201-.72,3.216-.472.736-1.16,1.104-2.064,1.104-.912,0-1.604-.372-2.076-1.116-.472-.75199-.708-1.84399-.708-3.276m4.488-.024c0-2.28799-.568-3.43199-1.704-3.432s-1.704,1.15601-1.704,3.468c0,2.33601.56,3.504 1.68,3.504 .592,0 1.028-.288 1.308-.864s.42-1.46799.42-2.676"/>
</g>
<g fill="#2e3436" font-family="FreeSans" font-size="12" letter-spacing="0" text-anchor="middle" transform="matrix(.86603,-.5,.5,.86603,-49.24922,566.39958)" word-spacing="0">
<path d="m300.72047,121.14284c-.608,1e-005-1.028.16801-1.26.504-.224.32801-.344.76801-.36,1.32h-1.056c.04-1.83199.928-2.74799 2.664-2.748 .80799,1e-005 1.43999.20801 1.896.624s.69599.98801.696,1.716c-1e-005,.86401-.39601,1.45201-1.188,1.764 .51199.17601.87999.42401 1.104.744 .22399.31201.33599.74001.336,1.284-1e-005,.80801-.26401,1.452-.792,1.932-.52001.48-1.21601.72-2.088.72-1.744,0-2.68-.916-2.808-2.748h1.056c.04.61601.204,1.072.492,1.368s.72.444 1.296.444c.55199,0 .98399-.148 1.296-.444s.46799-.72399.468-1.26c-1e-005-1.03199-.58801-1.54799-1.764-1.548l-.444.012h-.132v-.9c.76-.016 1.29599-.11199 1.608-.288 .31999-.17599.47999-.52399.48-1.044-1e-005-.44799-.13601-.79999-.408-1.056-.26401-.26399-.628-.39599-1.092-.396"/>
<path d="m307.40016,121.14284c-.60801,1e-005-1.02801.16801-1.26.504-.22401.32801-.34401.76801-.36,1.32h-1.056c.04-1.83199.92799-2.74799 2.664-2.748 .80799,1e-005 1.43999.20801 1.896.624s.69599.98801.696,1.716c-1e-005,.86401-.39601,1.45201-1.188,1.764 .51199.17601.87999.42401 1.104.744 .22399.31201.33599.74001.336,1.284-1e-005,.80801-.26401,1.452-.792,1.932-.52001.48-1.21601.72-2.088.72-1.74401,0-2.68-.916-2.808-2.748h1.056c.04.61601.20399,1.072.492,1.368s.71999.444 1.296.444c.55199,0 .98399-.148 1.296-.444s.46799-.72399.468-1.26c-1e-005-1.03199-.58801-1.54799-1.764-1.548l-.444.012h-.132v-.9c.75999-.016 1.29599-.11199 1.608-.288 .31999-.17599.47999-.52399.48-1.044-1e-005-.44799-.13601-.79999-.408-1.056-.26401-.26399-.62801-.39599-1.092-.396"/>
<path d="m311.35584,124.61084c0-.71199.06-1.33999.18-1.884s.272-.96799.456-1.272c.184-.31199.404-.56399.66-.756s.5-.31999.732-.384c.24-.064.492-.096.756-.096 1.856,1e-005 2.784,1.48801 2.784,4.464 0,1.40001-.24,2.47201-.72,3.216-.472.736-1.16,1.104-2.064,1.104-.912,0-1.604-.372-2.076-1.116-.472-.75199-.708-1.84399-.708-3.276m4.488-.024c0-2.28799-.568-3.43199-1.704-3.432s-1.704,1.15601-1.704,3.468c0,2.33601.56,3.504 1.68,3.504 .592,0 1.028-.288 1.308-.864s.42-1.46799.42-2.676"/>
</g>
<g fill="#2e3436" font-family="FreeSans" font-size="12" letter-spacing="0" text-anchor="middle" transform="matrix(-.86603,.5,-.5,-.86603,793.33922,794.23476)" word-spacing="0">
<path d="m300.58847,122.66684h-1.884v-.756c.816-.10399 1.348-.24799 1.596-.432s.464-.60399.648-1.26h.696v8.508h-1.056v-6.06"/>
<path d="m309.87216,120.21884v1.044h-3.54l-.336,2.376c.47199-.34399.99599-.51599 1.572-.516 .81599,1e-005 1.47599.26401 1.98.792 .51199.52001.76799,1.20001.768,2.04-1e-005,.89601-.27201,1.628-.816,2.196s-1.24401.852-2.1.852c-.32801,0-.63201-.036-.912-.108-.27201-.072-.50001-.156-.684-.252s-.34001-.236-.492-.396c-.144-.168-.256-.312-.336-.432-.072-.128-.144-.284-.216-.468-.064-.19199-.104-.32399-.12-.396s-.036-.17599-.06-.312h1.056c.24799.952.82799,1.428 1.74,1.428 .57599,0 1.02799-.176 1.356-.528 .33599-.35199.50399-.83199.504-1.44-1e-005-.63199-.16801-1.12799-.504-1.488-.33601-.36799-.78801-.55199-1.356-.552-.32801,1e-005-.60801.06-.84.18-.23201.11201-.47201.31601-.72.612h-.972l.636-4.632h4.392"/>
<path d="m311.35584,124.61084c0-.71199.06-1.33999.18-1.884s.272-.96799.456-1.272c.184-.31199.404-.56399.66-.756s.5-.31999.732-.384c.24-.064.492-.096.756-.096 1.856,1e-005 2.784,1.48801 2.784,4.464 0,1.40001-.24,2.47201-.72,3.216-.472.736-1.16,1.104-2.064,1.104-.912,0-1.604-.372-2.076-1.116-.472-.75199-.708-1.84399-.708-3.276m4.488-.024c0-2.28799-.568-3.43199-1.704-3.432s-1.704,1.15601-1.704,3.468c0,2.33601.56,3.504 1.68,3.504 .592,0 1.028-.288 1.308-.864s.42-1.46799.42-2.676"/>
</g>
<g fill="#2e3436" font-family="FreeSans" font-size="12" letter-spacing="0" text-anchor="middle" transform="matrix(.76604,-.64279,.64279,.76604,-62.6304,641.28722)" word-spacing="0">
<path d="m300.72047,121.14284c-.608,1e-005-1.028.16801-1.26.504-.224.32801-.344.76801-.36,1.32h-1.056c.04-1.83199.928-2.74799 2.664-2.748 .80799,1e-005 1.43999.20801 1.896.624s.69599.98801.696,1.716c-1e-005,.86401-.39601,1.45201-1.188,1.764 .51199.17601.87999.42401 1.104.744 .22399.31201.33599.74001.336,1.284-1e-005,.80801-.26401,1.452-.792,1.932-.52001.48-1.21601.72-2.088.72-1.744,0-2.68-.916-2.808-2.748h1.056c.04.61601.204,1.072.492,1.368s.72.444 1.296.444c.55199,0 .98399-.148 1.296-.444s.46799-.72399.468-1.26c-1e-005-1.03199-.58801-1.54799-1.764-1.548l-.444.012h-.132v-.9c.76-.016 1.29599-.11199 1.608-.288 .31999-.17599.47999-.52399.48-1.044-1e-005-.44799-.13601-.79999-.408-1.056-.26401-.26399-.628-.39599-1.092-.396"/>
<path d="m304.76016,123.17084c.056-1.96799.99199-2.95199 2.808-2.952 .80799,1e-005 1.46399.23201 1.968.696s.75599,1.06401.756,1.8c-1e-005,1.05601-.60001,1.91201-1.8,2.568l-1.2.648c-.52001.28001-.89201.55201-1.116.816s-.36401.576-.42.936h4.476v1.044h-5.664c.048-.936.236-1.65599.564-2.16 .32799-.51199.93599-1.01999 1.824-1.524l1.104-.624c.76799-.43999 1.15199-.99999 1.152-1.68-1e-005-.45599-.16001-.83599-.48-1.14s-.72001-.45599-1.2-.456c-1.06401,1e-005-1.63601.67601-1.716,2.028h-1.056"/>
<path d="m311.35584,124.61084c0-.71199.06-1.33999.18-1.884s.272-.96799.456-1.272c.184-.31199.404-.56399.66-.756s.5-.31999.732-.384c.24-.064.492-.096.756-.096 1.856,1e-005 2.784,1.48801 2.784,4.464 0,1.40001-.24,2.47201-.72,3.216-.472.736-1.16,1.104-2.064,1.104-.912,0-1.604-.372-2.076-1.116-.472-.75199-.708-1.84399-.708-3.276m4.488-.024c0-2.28799-.568-3.43199-1.704-3.432s-1.704,1.15601-1.704,3.468c0,2.33601.56,3.504 1.68,3.504 .592,0 1.028-.288 1.308-.864s.42-1.46799.42-2.676"/>
</g>
<g fill="#2e3436" font-family="FreeSans" font-size="12" letter-spacing="0" text-anchor="middle" transform="matrix(-.76604,.64279,-.64279,-.76604,806.72039,719.34713)" word-spacing="0">
<path d="m300.60019,122.66684h-1.884v-.756c.816-.10399 1.34799-.24799 1.596-.432s.46399-.60399.648-1.26h.696v8.508h-1.056v-6.06"/>
<path d="m308.09587,126.68684h-3.58799v-1.116l3.86399-5.352h.78001v5.52h1.25999v.948h-1.25999v2.04h-1.05601v-2.04m0-.948v-3.72l-2.664,3.72h2.664"/>
<path d="m311.34413,124.61084c-1e-005-.71199.06-1.33999.18-1.884s.27199-.96799.45599-1.272c.184-.31199.404-.56399.66-.756s.5-.31999.732-.384c.24-.064.492-.096.756-.096 1.856,1e-005 2.784,1.48801 2.784,4.464 0,1.40001-.24,2.47201-.72,3.216-.472.736-1.16,1.104-2.064,1.104-.912,0-1.604-.372-2.076-1.116-.472-.75199-.708-1.84399-.70799-3.276m4.488-.024c-1e-005-2.28799-.56801-3.43199-1.70401-3.432s-1.704,1.15601-1.704,3.468c0,2.33601.56,3.504 1.68,3.504 .592,0 1.028-.288 1.308-.864s.42-1.46799.42001-2.676"/>
</g>
<g fill="#2e3436" font-family="FreeSans" font-size="12" letter-spacing="0" text-anchor="middle" transform="matrix(.64279,-.76604,.76604,.64279,-62.80419,717.36077)" word-spacing="0">
<path d="m300.72047,121.14284c-.608,1e-005-1.028.16801-1.26.504-.224.32801-.344.76801-.36,1.32h-1.056c.04-1.83199.928-2.74799 2.664-2.748 .80799,1e-005 1.43999.20801 1.896.624s.69599.98801.696,1.716c-1e-005,.86401-.39601,1.45201-1.188,1.764 .51199.17601.87999.42401 1.104.744 .22399.31201.33599.74001.336,1.284-1e-005,.80801-.26401,1.452-.792,1.932-.52001.48-1.21601.72-2.088.72-1.744,0-2.68-.916-2.808-2.748h1.056c.04.61601.204,1.072.492,1.368s.72.444 1.296.444c.55199,0 .98399-.148 1.296-.444s.46799-.72399.468-1.26c-1e-005-1.03199-.58801-1.54799-1.764-1.548l-.444.012h-.132v-.9c.76-.016 1.29599-.11199 1.608-.288 .31999-.17599.47999-.52399.48-1.044-1e-005-.44799-.13601-.79999-.408-1.056-.26401-.26399-.628-.39599-1.092-.396"/>
<path d="m307.26816,122.66684h-1.884v-.756c.81599-.10399 1.34799-.24799 1.596-.432s.46399-.60399.648-1.26h.696v8.508h-1.056v-6.06"/>
<path d="m311.35584,124.61084c0-.71199.06-1.33999.18-1.884s.272-.96799.456-1.272c.184-.31199.404-.56399.66-.756s.5-.31999.732-.384c.24-.064.492-.096.756-.096 1.856,1e-005 2.784,1.48801 2.784,4.464 0,1.40001-.24,2.47201-.72,3.216-.472.736-1.16,1.104-2.064,1.104-.912,0-1.604-.372-2.076-1.116-.472-.75199-.708-1.84399-.708-3.276m4.488-.024c0-2.28799-.568-3.43199-1.704-3.432s-1.704,1.15601-1.704,3.468c0,2.33601.56,3.504 1.68,3.504 .592,0 1.028-.288 1.308-.864s.42-1.46799.42-2.676"/>
</g>
<g fill="#2e3436" font-family="FreeSans" font-size="12" letter-spacing="0" text-anchor="middle" transform="matrix(-.64279,.76604,-.76604,-.64279,806.89417,643.27359)" word-spacing="0">
<path d="m300.58847,122.66684h-1.884v-.756c.816-.10399 1.348-.24799 1.596-.432s.464-.60399.648-1.26h.696v8.508h-1.056v-6.06"/>
<path d="m307.40016,121.14284c-.60801,1e-005-1.02801.16801-1.26.504-.22401.32801-.34401.76801-.36,1.32h-1.056c.04-1.83199.92799-2.74799 2.664-2.748 .80799,1e-005 1.43999.20801 1.896.624s.69599.98801.696,1.716c-1e-005,.86401-.39601,1.45201-1.188,1.764 .51199.17601.87999.42401 1.104.744 .22399.31201.33599.74001.336,1.284-1e-005,.80801-.26401,1.452-.792,1.932-.52001.48-1.21601.72-2.088.72-1.74401,0-2.68-.916-2.808-2.748h1.056c.04.61601.20399,1.072.492,1.368s.71999.444 1.296.444c.55199,0 .98399-.148 1.296-.444s.46799-.72399.468-1.26c-1e-005-1.03199-.58801-1.54799-1.764-1.548l-.444.012h-.132v-.9c.75999-.016 1.29599-.11199 1.608-.288 .31999-.17599.47999-.52399.48-1.044-1e-005-.44799-.13601-.79999-.408-1.056-.26401-.26399-.62801-.39599-1.092-.396"/>
<path d="m311.35584,124.61084c0-.71199.06-1.33999.18-1.884s.272-.96799.456-1.272c.184-.31199.404-.56399.66-.756s.5-.31999.732-.384c.24-.064.492-.096.756-.096 1.856,1e-005 2.784,1.48801 2.784,4.464 0,1.40001-.24,2.47201-.72,3.216-.472.736-1.16,1.104-2.064,1.104-.912,0-1.604-.372-2.076-1.116-.472-.75199-.708-1.84399-.708-3.276m4.488-.024c0-2.28799-.568-3.43199-1.704-3.432s-1.704,1.15601-1.704,3.468c0,2.33601.56,3.504 1.68,3.504 .592,0 1.028-.288 1.308-.864s.42-1.46799.42-2.676"/>
</g>
<g fill="#2e3436" font-family="FreeSans" font-size="12" letter-spacing="0" text-anchor="middle" transform="matrix(.5,-.86603,.86603,.5,-49.7653,792.30877)" word-spacing="0">
<path d="m300.72047,121.14284c-.608,1e-005-1.028.16801-1.26.504-.224.32801-.344.76801-.36,1.32h-1.056c.04-1.83199.928-2.74799 2.664-2.748 .80799,1e-005 1.43999.20801 1.896.624s.69599.98801.696,1.716c-1e-005,.86401-.39601,1.45201-1.188,1.764 .51199.17601.87999.42401 1.104.744 .22399.31201.33599.74001.336,1.284-1e-005,.80801-.26401,1.452-.792,1.932-.52001.48-1.21601.72-2.088.72-1.744,0-2.68-.916-2.808-2.748h1.056c.04.61601.204,1.072.492,1.368s.72.444 1.296.444c.55199,0 .98399-.148 1.296-.444s.46799-.72399.468-1.26c-1e-005-1.03199-.58801-1.54799-1.764-1.548l-.444.012h-.132v-.9c.76-.016 1.29599-.11199 1.608-.288 .31999-.17599.47999-.52399.48-1.044-1e-005-.44799-.13601-.79999-.408-1.056-.26401-.26399-.628-.39599-1.092-.396"/>
<path d="m304.67616,124.61084c0-.71199.06-1.33999.18-1.884s.272-.96799.456-1.272c.18399-.31199.40399-.56399.66-.756s.49999-.31999.732-.384c.23999-.064.49199-.096.756-.096 1.85599,1e-005 2.78399,1.48801 2.784,4.464-1e-005,1.40001-.24001,2.47201-.72,3.216-.47201.736-1.16001,1.104-2.064,1.104-.91201,0-1.60401-.372-2.076-1.116-.472-.75199-.708-1.84399-.708-3.276m4.488-.024c-1e-005-2.28799-.56801-3.43199-1.704-3.432s-1.70401,1.15601-1.704,3.468c-1e-005,2.33601.55999,3.504 1.68,3.504 .59199,0 1.02799-.288 1.308-.864s.41999-1.46799.42-2.676"/>
<path d="m311.35584,124.61084c0-.71199.06-1.33999.18-1.884s.272-.96799.456-1.272c.184-.31199.404-.56399.66-.756s.5-.31999.732-.384c.24-.064.492-.096.756-.096 1.856,1e-005 2.784,1.48801 2.784,4.464 0,1.40001-.24,2.47201-.72,3.216-.472.736-1.16,1.104-2.064,1.104-.912,0-1.604-.372-2.076-1.116-.472-.75199-.708-1.84399-.708-3.276m4.488-.024c0-2.28799-.568-3.43199-1.704-3.432s-1.704,1.15601-1.704,3.468c0,2.33601.56,3.504 1.68,3.504 .592,0 1.028-.288 1.308-.864s.42-1.46799.42-2.676"/>
</g>
<g fill="#2e3436" font-family="FreeSans" font-size="12" letter-spacing="0" text-anchor="middle" transform="matrix(-.5,.86603,-.86603,-.5,793.85528,568.32561)" word-spacing="0">
<path d="m300.58847,122.66684h-1.884v-.756c.816-.10399 1.348-.24799 1.596-.432s.464-.60399.648-1.26h.696v8.508h-1.056v-6.06"/>
<path d="m304.76016,123.17084c.056-1.96799.99199-2.95199 2.808-2.952 .80799,1e-005 1.46399.23201 1.968.696s.75599,1.06401.756,1.8c-1e-005,1.05601-.60001,1.91201-1.8,2.568l-1.2.648c-.52001.28001-.89201.55201-1.116.816s-.36401.576-.42.936h4.476v1.044h-5.664c.048-.936.236-1.65599.564-2.16 .32799-.51199.93599-1.01999 1.824-1.524l1.104-.624c.76799-.43999 1.15199-.99999 1.152-1.68-1e-005-.45599-.16001-.83599-.48-1.14s-.72001-.45599-1.2-.456c-1.06401,1e-005-1.63601.67601-1.716,2.028h-1.056"/>
<path d="m311.35584,124.61084c0-.71199.06-1.33999.18-1.884s.272-.96799.456-1.272c.184-.31199.404-.56399.66-.756s.5-.31999.732-.384c.24-.064.492-.096.756-.096 1.856,1e-005 2.784,1.48801 2.784,4.464 0,1.40001-.24,2.47201-.72,3.216-.472.736-1.16,1.104-2.064,1.104-.912,0-1.604-.372-2.076-1.116-.472-.75199-.708-1.84399-.708-3.276m4.488-.024c0-2.28799-.568-3.43199-1.704-3.432s-1.704,1.15601-1.704,3.468c0,2.33601.56,3.504 1.68,3.504 .592,0 1.028-.288 1.308-.864s.42-1.46799.42-2.676"/>
</g>
<g fill="#2e3436" font-family="FreeSans" font-size="12" letter-spacing="0" text-anchor="middle" transform="matrix(.34202,-.93969,.93969,.34202,-23.90992,863.85396)" word-spacing="0">
<path d="m298.09219,123.17084c.056-1.96799.992-2.95199 2.808-2.952 .80799,1e-005 1.46399.23201 1.968.696s.75599,1.06401.756,1.8c-1e-005,1.05601-.60001,1.91201-1.8,2.568l-1.2.648c-.52001.28001-.892.55201-1.116.816s-.364.576-.42.936h4.476v1.044h-5.664c.048-.936.236-1.65599.564-2.16 .328-.51199.936-1.01999 1.824-1.524l1.104-.624c.76799-.43999 1.15199-.99999 1.152-1.68-1e-005-.45599-.16001-.83599-.48-1.14s-.72001-.45599-1.2-.456c-1.064,1e-005-1.636.67601-1.716,2.028h-1.056"/>
<path d="m310.27987,124.37084c0,.75201-.068,1.41601-.204,1.992-.136.56801-.308,1.016-.516,1.344-.2.328-.444.596-.732.804-.28.2-.548.332-.804.396s-.524.096-.804.096c-.648,0-1.188-.196-1.62-.588-.424-.392-.688-.936-.79199-1.632h1.05599c.088.40801.256.724.50401.948s.55599.336.92399.336c.608,0 1.072-.276 1.392-.828 .328-.55999.496-1.35999.50401-2.4-.52801.63201-1.17601.94801-1.94401.948s-1.396-.25199-1.884-.756-.732-1.15199-.73199-1.944c-1e-005-.83199.25999-1.51599.77999-2.052 .528-.54399 1.196-.81599 2.004-.816 1.912,1e-005 2.868,1.38401 2.868,4.152m-2.88-3.228c-.488,1e-005-.892.17601-1.21199.528s-.48001.79601-.48001,1.332c0,.56801.148,1.02001.44401,1.356 .29599.32801.69999.49201 1.21199.492s.932-.16799 1.26-.504c.336-.33599.504-.76399.50401-1.284-1e-005-.55199-.16401-1.00799-.49201-1.368-.328-.36799-.74-.55199-1.236-.552"/>
<path d="m311.34413,124.61084c-1e-005-.71199.06-1.33999.18-1.884s.27199-.96799.45599-1.272c.184-.31199.404-.56399.66-.756s.5-.31999.732-.384c.24-.064.492-.096.756-.096 1.856,1e-005 2.784,1.48801 2.784,4.464 0,1.40001-.24,2.47201-.72,3.216-.472.736-1.16,1.104-2.064,1.104-.912,0-1.604-.372-2.076-1.116-.472-.75199-.708-1.84399-.70799-3.276m4.488-.024c-1e-005-2.28799-.56801-3.43199-1.70401-3.432s-1.704,1.15601-1.704,3.468c0,2.33601.56,3.504 1.68,3.504 .592,0 1.028-.288 1.308-.864s.42-1.46799.42001-2.676"/>
</g>
<g fill="#2e3436" font-family="FreeSans" font-size="12" letter-spacing="0" text-anchor="middle" transform="matrix(-.34202,.93969,-.93969,-.34202,767.9999,496.78042)" word-spacing="0">
<path d="m300.58847,122.66684h-1.884v-.756c.816-.10399 1.348-.24799 1.596-.432s.464-.60399.648-1.26h.696v8.508h-1.056v-6.06"/>
<path d="m307.26816,122.66684h-1.884v-.756c.81599-.10399 1.34799-.24799 1.596-.432s.46399-.60399.648-1.26h.696v8.508h-1.056v-6.06"/>
<path d="m311.35584,124.61084c0-.71199.06-1.33999.18-1.884s.272-.96799.456-1.272c.184-.31199.404-.56399.66-.756s.5-.31999.732-.384c.24-.064.492-.096.756-.096 1.856,1e-005 2.784,1.48801 2.784,4.464 0,1.40001-.24,2.47201-.72,3.216-.472.736-1.16,1.104-2.064,1.104-.912,0-1.604-.372-2.076-1.116-.472-.75199-.708-1.84399-.708-3.276m4.488-.024c0-2.28799-.568-3.43199-1.704-3.432s-1.704,1.15601-1.704,3.468c0,2.33601.56,3.504 1.68,3.504 .592,0 1.028-.288 1.308-.864s.42-1.46799.42-2.676"/>
</g>
<g fill="#2e3436" font-family="FreeSans" font-size="12" letter-spacing="0" text-anchor="middle" transform="matrix(.17365,-.98481,.98481,.17365,13.97635,929.82247)" word-spacing="0">
<path d="m298.08047,123.17084c.056-1.96799.992-2.95199 2.808-2.952 .80799,1e-005 1.46399.23201 1.968.696s.75599,1.06401.756,1.8c-1e-005,1.05601-.60001,1.91201-1.8,2.568l-1.2.648c-.52.28001-.892.55201-1.116.816s-.364.576-.42.936h4.476v1.044h-5.664c.048-.936.236-1.65599.564-2.16 .328-.51199.936-1.01999 1.824-1.524l1.104-.624c.76799-.43999 1.15199-.99999 1.152-1.68-1e-005-.45599-.16001-.83599-.48-1.14s-.72001-.45599-1.2-.456c-1.064,1e-005-1.636.67601-1.716,2.028h-1.056"/>
<path d="m308.85216,124.25084c.97599.46401 1.46399,1.17201 1.464,2.124-1e-005,.77601-.26801,1.408-.804,1.896-.52801.488-1.21201.732-2.052.732s-1.52801-.244-2.064-.732c-.528-.496-.792-1.13199-.792-1.908 0-.94399.484-1.64799 1.452-2.112-.43201-.27199-.732-.53599-.9-.792s-.252-.57999-.252-.972c0-.66399.236-1.20799.708-1.632 .47999-.42399 1.09599-.63599 1.848-.636s1.36399.21201 1.836.636c.47999.42401.71999.96801.72,1.632-1e-005,.40001-.084.72801-.252.984s-.47201.51601-.912.78m-.324-2.724c-.26401-.24799-.62001-.37199-1.068-.372s-.80801.12401-1.08.372c-.26401.24001-.39601.56401-.396.972-1e-005,.40001.13199.72401.396.972 .27199.24001.63199.36001 1.08.36 .43999,1e-005 .79599-.11999 1.068-.36s.40799-.55999.408-.96c-1e-005-.41599-.13601-.74399-.408-.984m.216,3.66c-.32801-.31199-.75601-.46799-1.284-.468s-.95601.15601-1.284.468c-.32801.30401-.49201.70401-.492,1.2s.15999.9.48,1.212c.32799.312.75199.468 1.272.468 .53599,0 .96799-.152 1.296-.456 .33599-.312.50399-.71999.504-1.224s-.16401-.89599-.492-1.2"/>
<path d="m311.35584,124.61084c0-.71199.06-1.33999.18-1.884s.272-.96799.456-1.272c.184-.31199.404-.56399.66-.756s.5-.31999.732-.384c.24-.064.492-.096.756-.096 1.856,1e-005 2.784,1.48801 2.784,4.464 0,1.40001-.24,2.47201-.72,3.216-.472.736-1.16,1.104-2.064,1.104-.912,0-1.604-.372-2.076-1.116-.472-.75199-.708-1.84399-.708-3.276m4.488-.024c0-2.28799-.568-3.43199-1.704-3.432s-1.704,1.15601-1.704,3.468c0,2.33601.56,3.504 1.68,3.504 .592,0 1.028-.288 1.308-.864s.42-1.46799.42-2.676"/>
</g>
<g fill="#2e3436" font-family="FreeSans" font-size="12" letter-spacing="0" text-anchor="middle" transform="matrix(-.17365,.98481,-.98481,-.17365,730.11363,430.8119)" word-spacing="0">
<path d="m300.58847,122.66684h-1.884v-.756c.816-.10399 1.348-.24799 1.596-.432s.464-.60399.648-1.26h.696v8.508h-1.056v-6.06"/>
<path d="m304.67616,124.61084c0-.71199.06-1.33999.18-1.884s.272-.96799.456-1.272c.18399-.31199.40399-.56399.66-.756s.49999-.31999.732-.384c.23999-.064.49199-.096.756-.096 1.85599,1e-005 2.78399,1.48801 2.784,4.464-1e-005,1.40001-.24001,2.47201-.72,3.216-.47201.736-1.16001,1.104-2.064,1.104-.91201,0-1.60401-.372-2.076-1.116-.472-.75199-.708-1.84399-.708-3.276m4.488-.024c-1e-005-2.28799-.56801-3.43199-1.704-3.432s-1.70401,1.15601-1.704,3.468c-1e-005,2.33601.55999,3.504 1.68,3.504 .59199,0 1.02799-.288 1.308-.864s.41999-1.46799.42-2.676"/>
<path d="m311.35584,124.61084c0-.71199.06-1.33999.18-1.884s.272-.96799.456-1.272c.184-.31199.404-.56399.66-.756s.5-.31999.732-.384c.24-.064.492-.096.756-.096 1.856,1e-005 2.784,1.48801 2.784,4.464 0,1.40001-.24,2.47201-.72,3.216-.472.736-1.16,1.104-2.064,1.104-.912,0-1.604-.372-2.076-1.116-.472-.75199-.708-1.84399-.708-3.276m4.488-.024c0-2.28799-.568-3.43199-1.704-3.432s-1.704,1.15601-1.704,3.468c0,2.33601.56,3.504 1.68,3.504 .592,0 1.028-.288 1.308-.864s.42-1.46799.42-2.676"/>
</g>
<g fill="#2e3436" font-family="FreeSans" font-size="12" letter-spacing="0" text-anchor="middle" transform="matrix(-1.8611947e-8,-1,1,-1.8611947e-8,62.74236,988.20989)" word-spacing="0">
<path d="m298.08047,123.17084c.056-1.96799.992-2.95199 2.808-2.952 .80799,1e-005 1.46399.23201 1.968.696s.75599,1.06401.756,1.8c-1e-005,1.05601-.60001,1.91201-1.8,2.568l-1.2.648c-.52.28001-.892.55201-1.116.816s-.364.576-.42.936h4.476v1.044h-5.664c.048-.936.236-1.65599.564-2.16 .328-.51199.936-1.01999 1.824-1.524l1.104-.624c.76799-.43999 1.15199-.99999 1.152-1.68-1e-005-.45599-.16001-.83599-.48-1.14s-.72001-.45599-1.2-.456c-1.064,1e-005-1.636.67601-1.716,2.028h-1.056"/>
<path d="m310.40016,120.21884v.888c-.96001,1.28001-1.72001,2.53201-2.28,3.756-.55201,1.21601-.94401,2.504-1.176,3.864h-1.128c.31999-1.4.72799-2.63199 1.224-3.696s1.25199-2.31999 2.268-3.768h-4.596v-1.044h5.688"/>
<path d="m311.35584,124.61084c0-.71199.06-1.33999.18-1.884s.272-.96799.456-1.272c.184-.31199.404-.56399.66-.756s.5-.31999.732-.384c.24-.064.492-.096.756-.096 1.856,1e-005 2.784,1.48801 2.784,4.464 0,1.40001-.24,2.47201-.72,3.216-.472.736-1.16,1.104-2.064,1.104-.912,0-1.604-.372-2.076-1.116-.472-.75199-.708-1.84399-.708-3.276m4.488-.024c0-2.28799-.568-3.43199-1.704-3.432s-1.704,1.15601-1.704,3.468c0,2.33601.56,3.504 1.68,3.504 .592,0 1.028-.288 1.308-.864s.42-1.46799.42-2.676"/>
</g>
<g fill="#2e3436" font-family="FreeSans" font-size="12" letter-spacing="0" text-anchor="middle" transform="matrix(1.8611947e-8,1,-1,1.8611947e-8,681.34763,372.42448)" word-spacing="0">
<path d="m306.94003,124.37084c0,.75201-.068,1.41601-.204,1.992-.136.56801-.308,1.016-.516,1.344-.2.328-.444.596-.732.804-.28.2-.548.332-.804.396s-.524.096-.804.096c-.648,0-1.188-.196-1.62-.588-.424-.392-.688-.936-.792-1.632h1.056c.088.40801.256.724.504.948s.556.336.924.336c.608,0 1.072-.276 1.392-.828 .328-.55999.496-1.35999.504-2.4-.528.63201-1.176.94801-1.944.948s-1.396-.25199-1.884-.756-.732-1.15199-.732-1.944c0-.83199.26-1.51599.78-2.052 .528-.54399 1.196-.81599 2.004-.816 1.912,1e-005 2.868,1.38401 2.868,4.152m-2.88-3.228c-.488,1e-005-.892.17601-1.212.528s-.48.79601-.48,1.332c0,.56801.148,1.02001.444,1.356 .296.32801.7.49201 1.212.492s.932-.16799 1.26-.504c.336-.33599.504-.76399.504-1.284 0-.55199-.164-1.00799-.492-1.368-.328-.36799-.74-.55199-1.236-.552"/>
<path d="m308.00428,124.61084c0-.71199.06-1.33999.18-1.884s.272-.96799.456-1.272c.184-.31199.404-.56399.66-.756s.5-.31999.732-.384c.24-.064.492-.096.756-.096 1.856,1e-005 2.784,1.48801 2.784,4.464 0,1.40001-.24,2.47201-.72,3.216-.472.736-1.16,1.104-2.064,1.104-.912,0-1.604-.372-2.076-1.116-.472-.75199-.708-1.84399-.708-3.276m4.488-.024c0-2.28799-.568-3.43199-1.704-3.432s-1.704,1.15601-1.704,3.468c0,2.33601.56,3.504 1.68,3.504 .592,0 1.028-.288 1.308-.864s.42-1.46799.42-2.676"/>
</g>
<g fill="#2e3436" font-family="FreeSans" font-size="12" letter-spacing="0" text-anchor="middle" transform="matrix(-.17365,-.98481,.98481,-.17365,120.90636,1037.2421)" word-spacing="0">
<path d="m298.08047,123.17084c.056-1.96799.992-2.95199 2.808-2.952 .80799,1e-005 1.46399.23201 1.968.696s.75599,1.06401.756,1.8c-1e-005,1.05601-.60001,1.91201-1.8,2.568l-1.2.648c-.52.28001-.892.55201-1.116.816s-.364.576-.42.936h4.476v1.044h-5.664c.048-.936.236-1.65599.564-2.16 .328-.51199.936-1.01999 1.824-1.524l1.104-.624c.76799-.43999 1.15199-.99999 1.152-1.68-1e-005-.45599-.16001-.83599-.48-1.14s-.72001-.45599-1.2-.456c-1.064,1e-005-1.636.67601-1.716,2.028h-1.056"/>
<path d="m304.67616,124.85084c0-.75199.068-1.41199.204-1.98 .136-.57599.304-1.02799.504-1.356 .20799-.32799.45199-.59199.732-.792 .28799-.20799.55599-.34399.804-.408 .25599-.064.52399-.096.804-.096 .64799,1e-005 1.18399.19601 1.608.588 .43199.39201.69999.93601.804,1.632h-1.056c-.088-.40799-.25601-.72399-.504-.948s-.55601-.33599-.924-.336c-.60801,1e-005-1.07601.28001-1.404.84-.32001.55201-.48401,1.34801-.492,2.388 .46399-.63199 1.11599-.94799 1.956-.948 .75999,1e-005 1.38399.25201 1.872.756s.73199,1.15201.732,1.944c-1e-005,.83201-.26401,1.52-.792,2.064-.52001.536-1.18401.804-1.992.804-1.90401,0-2.856-1.384-2.856-4.152m2.904-.48c-.52001,1e-005-.94401.16801-1.272.504-.32801.32801-.49201.75601-.492,1.284-1e-005,.54401.16399,1.00001.492,1.368 .32799.36.73999.54 1.236.54 .48799,0 .89199-.172 1.212-.516 .31999-.35199.47999-.79599.48-1.332-1e-005-.56799-.14801-1.01599-.444-1.344-.29601-.33599-.70001-.50399-1.212-.504"/>
<path d="m311.35584,124.61084c0-.71199.06-1.33999.18-1.884s.272-.96799.456-1.272c.184-.31199.404-.56399.66-.756s.5-.31999.732-.384c.24-.064.492-.096.756-.096 1.856,1e-005 2.784,1.48801 2.784,4.464 0,1.40001-.24,2.47201-.72,3.216-.472.736-1.16,1.104-2.064,1.104-.912,0-1.604-.372-2.076-1.116-.472-.75199-.708-1.84399-.708-3.276m4.488-.024c0-2.28799-.568-3.43199-1.704-3.432s-1.704,1.15601-1.704,3.468c0,2.33601.56,3.504 1.68,3.504 .592,0 1.028-.288 1.308-.864s.42-1.46799.42-2.676"/>
</g>
<g fill="#2e3436" font-family="FreeSans" font-size="12" letter-spacing="0" text-anchor="middle" transform="matrix(.17365,.98481,-.98481,.17365,623.18361,323.39219)" word-spacing="0">
<path d="m305.51231,124.25084c.976.46401 1.464,1.17201 1.464,2.124 0,.77601-.268,1.408-.804,1.896-.528.488-1.212.732-2.052.732s-1.528-.244-2.064-.732c-.528-.496-.792-1.13199-.792-1.908 0-.94399.484-1.64799 1.452-2.112-.432-.27199-.732-.53599-.9-.792s-.252-.57999-.252-.972c0-.66399.236-1.20799.708-1.632 .48-.42399 1.096-.63599 1.848-.636s1.364.21201 1.836.636c.48.42401.72.96801.72,1.632 0,.40001-.084.72801-.252.984s-.472.51601-.912.78m-.324-2.724c-.264-.24799-.62-.37199-1.068-.372s-.808.12401-1.08.372c-.264.24001-.396.56401-.396.972 0,.40001.132.72401.396.972 .272.24001.632.36001 1.08.36 .44,1e-005 .796-.11999 1.068-.36s.408-.55999.408-.96c0-.41599-.136-.74399-.408-.984m.216,3.66c-.328-.31199-.756-.46799-1.284-.468s-.956.15601-1.284.468c-.328.30401-.492.70401-.492,1.2s.16.9.48,1.212c.328.312.752.468 1.272.468 .536,0 .968-.152 1.296-.456 .336-.312.504-.71999.504-1.224s-.164-.89599-.492-1.2"/>
<path d="m308.016,124.61084c0-.71199.06-1.33999.18-1.884s.272-.96799.456-1.272c.184-.31199.404-.56399.66-.756s.5-.31999.732-.384c.24-.064.492-.096.756-.096 1.85599,1e-005 2.78399,1.48801 2.784,4.464-1e-005,1.40001-.24001,2.47201-.72,3.216-.472.736-1.16,1.104-2.064,1.104-.912,0-1.604-.372-2.076-1.116-.472-.75199-.708-1.84399-.708-3.276m4.488-.024c-1e-005-2.28799-.568-3.43199-1.704-3.432s-1.704,1.15601-1.704,3.468c0,2.33601.56,3.504 1.68,3.504 .592,0 1.028-.288 1.308-.864s.41999-1.46799.42-2.676"/>
</g>
<g fill="#2e3436" font-family="FreeSans" font-size="12" letter-spacing="0" text-anchor="middle" transform="matrix(-.34202,-.93969,.93969,-.34202,186.70109,1075.4294)" word-spacing="0">
<path d="m298.08047,123.17084c.056-1.96799.992-2.95199 2.808-2.952 .80799,1e-005 1.46399.23201 1.968.696s.75599,1.06401.756,1.8c-1e-005,1.05601-.60001,1.91201-1.8,2.568l-1.2.648c-.52.28001-.892.55201-1.116.816s-.364.576-.42.936h4.476v1.044h-5.664c.048-.936.236-1.65599.564-2.16 .328-.51199.936-1.01999 1.824-1.524l1.104-.624c.76799-.43999 1.15199-.99999 1.152-1.68-1e-005-.45599-.16001-.83599-.48-1.14s-.72001-.45599-1.2-.456c-1.064,1e-005-1.636.67601-1.716,2.028h-1.056"/>
<path d="m309.87216,120.21884v1.044h-3.54l-.336,2.376c.47199-.34399.99599-.51599 1.572-.516 .81599,1e-005 1.47599.26401 1.98.792 .51199.52001.76799,1.20001.768,2.04-1e-005,.89601-.27201,1.628-.816,2.196s-1.24401.852-2.1.852c-.32801,0-.63201-.036-.912-.108-.27201-.072-.50001-.156-.684-.252s-.34001-.236-.492-.396c-.144-.168-.256-.312-.336-.432-.072-.128-.144-.284-.216-.468-.064-.19199-.104-.32399-.12-.396s-.036-.17599-.06-.312h1.056c.24799.952.82799,1.428 1.74,1.428 .57599,0 1.02799-.176 1.356-.528 .33599-.35199.50399-.83199.504-1.44-1e-005-.63199-.16801-1.12799-.504-1.488-.33601-.36799-.78801-.55199-1.356-.552-.32801,1e-005-.60801.06-.84.18-.23201.11201-.47201.31601-.72.612h-.972l.636-4.632h4.392"/>
<path d="m311.35584,124.61084c0-.71199.06-1.33999.18-1.884s.272-.96799.456-1.272c.184-.31199.404-.56399.66-.756s.5-.31999.732-.384c.24-.064.492-.096.756-.096 1.856,1e-005 2.784,1.48801 2.784,4.464 0,1.40001-.24,2.47201-.72,3.216-.472.736-1.16,1.104-2.064,1.104-.912,0-1.604-.372-2.076-1.116-.472-.75199-.708-1.84399-.708-3.276m4.488-.024c0-2.28799-.568-3.43199-1.704-3.432s-1.704,1.15601-1.704,3.468c0,2.33601.56,3.504 1.68,3.504 .592,0 1.028-.288 1.308-.864s.42-1.46799.42-2.676"/>
</g>
<g fill="#2e3436" font-family="FreeSans" font-size="12" letter-spacing="0" text-anchor="middle" transform="matrix(.34202,.93969,-.93969,.34202,557.38888,285.20495)" word-spacing="0">
<path d="m307.06031,120.21884v.888c-.96,1.28001-1.72,2.53201-2.28,3.756-.552,1.21601-.944,2.504-1.176,3.864h-1.128c.32-1.4.728-2.63199 1.224-3.696s1.252-2.31999 2.268-3.768h-4.596v-1.044h5.688"/>
<path d="m308.016,124.61084c0-.71199.06-1.33999.18-1.884s.272-.96799.456-1.272c.184-.31199.404-.56399.66-.756s.5-.31999.732-.384c.24-.064.492-.096.756-.096 1.85599,1e-005 2.78399,1.48801 2.784,4.464-1e-005,1.40001-.24001,2.47201-.72,3.216-.472.736-1.16,1.104-2.064,1.104-.912,0-1.604-.372-2.076-1.116-.472-.75199-.708-1.84399-.708-3.276m4.488-.024c-1e-005-2.28799-.568-3.43199-1.704-3.432s-1.704,1.15601-1.704,3.468c0,2.33601.56,3.504 1.68,3.504 .592,0 1.028-.288 1.308-.864s.41999-1.46799.42-2.676"/>
</g>
<g fill="#2e3436" font-family="FreeSans" font-size="12" letter-spacing="0" text-anchor="middle" transform="matrix(-.5,-.86603,.86603,-.5,258.1274,1101.6114)" word-spacing="0">
<path d="m298.09219,123.17084c.056-1.96799.992-2.95199 2.808-2.952 .80799,1e-005 1.46399.23201 1.968.696s.75599,1.06401.756,1.8c-1e-005,1.05601-.60001,1.91201-1.8,2.568l-1.2.648c-.52001.28001-.892.55201-1.116.816s-.364.576-.42.936h4.476v1.044h-5.664c.048-.936.236-1.65599.564-2.16 .328-.51199.936-1.01999 1.824-1.524l1.104-.624c.76799-.43999 1.15199-.99999 1.152-1.68-1e-005-.45599-.16001-.83599-.48-1.14s-.72001-.45599-1.2-.456c-1.064,1e-005-1.636.67601-1.716,2.028h-1.056"/>
<path d="m308.09587,126.68684h-3.58799v-1.116l3.86399-5.352h.78001v5.52h1.25999v.948h-1.25999v2.04h-1.05601v-2.04m0-.948v-3.72l-2.664,3.72h2.664"/>
<path d="m311.34413,124.61084c-1e-005-.71199.06-1.33999.18-1.884s.27199-.96799.45599-1.272c.184-.31199.404-.56399.66-.756s.5-.31999.732-.384c.24-.064.492-.096.756-.096 1.856,1e-005 2.784,1.48801 2.784,4.464 0,1.40001-.24,2.47201-.72,3.216-.472.736-1.16,1.104-2.064,1.104-.912,0-1.604-.372-2.076-1.116-.472-.75199-.708-1.84399-.70799-3.276m4.488-.024c-1e-005-2.28799-.56801-3.43199-1.70401-3.432s-1.704,1.15601-1.704,3.468c0,2.33601.56,3.504 1.68,3.504 .592,0 1.028-.288 1.308-.864s.42-1.46799.42001-2.676"/>
</g>
<g fill="#2e3436" font-family="FreeSans" font-size="12" letter-spacing="0" text-anchor="middle" transform="matrix(.5,.86603,-.86603,.5,485.96258,259.02293)" word-spacing="0">
<path d="m301.33631,124.85084c0-.75199.068-1.41199.204-1.98 .136-.57599.304-1.02799.504-1.356 .208-.32799.452-.59199.732-.792 .288-.20799.556-.34399.804-.408 .256-.064.524-.096.804-.096 .648,1e-005 1.184.19601 1.608.588 .432.39201.7.93601.804,1.632h-1.056c-.088-.40799-.256-.72399-.504-.948s-.556-.33599-.924-.336c-.608,1e-005-1.076.28001-1.404.84-.32.55201-.484,1.34801-.492,2.388 .464-.63199 1.116-.94799 1.956-.948 .76,1e-005 1.384.25201 1.872.756s.732,1.15201.732,1.944c0,.83201-.264,1.52-.792,2.064-.52.536-1.184.804-1.992.804-1.904,0-2.856-1.384-2.856-4.152m2.904-.48c-.52,1e-005-.944.16801-1.272.504-.328.32801-.492.75601-.492,1.284 0,.54401.164,1.00001.492,1.368 .328.36.74.54 1.236.54 .488,0 .892-.172 1.212-.516 .32-.35199.48-.79599.48-1.332 0-.56799-.148-1.01599-.444-1.344-.296-.33599-.7-.50399-1.212-.504"/>
<path d="m308.016,124.61084c0-.71199.06-1.33999.18-1.884s.272-.96799.456-1.272c.184-.31199.404-.56399.66-.756s.5-.31999.732-.384c.24-.064.492-.096.756-.096 1.85599,1e-005 2.78399,1.48801 2.784,4.464-1e-005,1.40001-.24001,2.47201-.72,3.216-.472.736-1.16,1.104-2.064,1.104-.912,0-1.604-.372-2.076-1.116-.472-.75199-.708-1.84399-.708-3.276m4.488-.024c-1e-005-2.28799-.568-3.43199-1.704-3.432s-1.704,1.15601-1.704,3.468c0,2.33601.56,3.504 1.68,3.504 .592,0 1.028-.288 1.308-.864s.41999-1.46799.42-2.676"/>
</g>
<g fill="#2e3436" font-family="FreeSans" font-size="12" letter-spacing="0" text-anchor="middle" transform="matrix(-.64279,-.76604,.76604,-.64279,333.01504,1114.9926)" word-spacing="0">
<path d="m298.08047,123.17084c.056-1.96799.992-2.95199 2.808-2.952 .80799,1e-005 1.46399.23201 1.968.696s.75599,1.06401.756,1.8c-1e-005,1.05601-.60001,1.91201-1.8,2.568l-1.2.648c-.52.28001-.892.55201-1.116.816s-.364.576-.42.936h4.476v1.044h-5.664c.048-.936.236-1.65599.564-2.16 .328-.51199.936-1.01999 1.824-1.524l1.104-.624c.76799-.43999 1.15199-.99999 1.152-1.68-1e-005-.45599-.16001-.83599-.48-1.14s-.72001-.45599-1.2-.456c-1.064,1e-005-1.636.67601-1.716,2.028h-1.056"/>
<path d="m307.40016,121.14284c-.60801,1e-005-1.02801.16801-1.26.504-.22401.32801-.34401.76801-.36,1.32h-1.056c.04-1.83199.92799-2.74799 2.664-2.748 .80799,1e-005 1.43999.20801 1.896.624s.69599.98801.696,1.716c-1e-005,.86401-.39601,1.45201-1.188,1.764 .51199.17601.87999.42401 1.104.744 .22399.31201.33599.74001.336,1.284-1e-005,.80801-.26401,1.452-.792,1.932-.52001.48-1.21601.72-2.088.72-1.74401,0-2.68-.916-2.808-2.748h1.056c.04.61601.20399,1.072.492,1.368s.71999.444 1.296.444c.55199,0 .98399-.148 1.296-.444s.46799-.72399.468-1.26c-1e-005-1.03199-.58801-1.54799-1.764-1.548l-.444.012h-.132v-.9c.75999-.016 1.29599-.11199 1.608-.288 .31999-.17599.47999-.52399.48-1.044-1e-005-.44799-.13601-.79999-.408-1.056-.26401-.26399-.62801-.39599-1.092-.396"/>
<path d="m311.35584,124.61084c0-.71199.06-1.33999.18-1.884s.272-.96799.456-1.272c.184-.31199.404-.56399.66-.756s.5-.31999.732-.384c.24-.064.492-.096.756-.096 1.856,1e-005 2.784,1.48801 2.784,4.464 0,1.40001-.24,2.47201-.72,3.216-.472.736-1.16,1.104-2.064,1.104-.912,0-1.604-.372-2.076-1.116-.472-.75199-.708-1.84399-.708-3.276m4.488-.024c0-2.28799-.568-3.43199-1.704-3.432s-1.704,1.15601-1.704,3.468c0,2.33601.56,3.504 1.68,3.504 .592,0 1.028-.288 1.308-.864s.42-1.46799.42-2.676"/>
</g>
<g fill="#2e3436" font-family="FreeSans" font-size="12" letter-spacing="0" text-anchor="middle" transform="matrix(.64279,.76604,-.76604,.64279,411.07494,245.6418)" word-spacing="0">
<path d="m306.53231,120.21884v1.044h-3.54l-.336,2.376c.472-.34399.996-.51599 1.572-.516 .816,1e-005 1.476.26401 1.98.792 .512.52001.768,1.20001.768,2.04 0,.89601-.272,1.628-.816,2.196s-1.244.852-2.1.852c-.328,0-.632-.036-.912-.108-.272-.072-.5-.156-.684-.252s-.34-.236-.492-.396c-.144-.168-.256-.312-.336-.432-.072-.128-.144-.284-.216-.468-.064-.19199-.104-.32399-.12-.396s-.036-.17599-.06-.312h1.056c.248.952.828,1.428 1.74,1.428 .576,0 1.028-.176 1.356-.528 .336-.35199.504-.83199.504-1.44 0-.63199-.168-1.12799-.504-1.488-.336-.36799-.788-.55199-1.356-.552-.328,1e-005-.608.06-.84.18-.232.11201-.472.31601-.72.612h-.972l.636-4.632h4.392"/>
<path d="m308.016,124.61084c0-.71199.06-1.33999.18-1.884s.272-.96799.456-1.272c.184-.31199.404-.56399.66-.756s.5-.31999.732-.384c.24-.064.492-.096.756-.096 1.85599,1e-005 2.78399,1.48801 2.784,4.464-1e-005,1.40001-.24001,2.47201-.72,3.216-.472.736-1.16,1.104-2.064,1.104-.912,0-1.604-.372-2.076-1.116-.472-.75199-.708-1.84399-.708-3.276m4.488-.024c-1e-005-2.28799-.568-3.43199-1.704-3.432s-1.704,1.15601-1.704,3.468c0,2.33601.56,3.504 1.68,3.504 .592,0 1.028-.288 1.308-.864s.41999-1.46799.42-2.676"/>
</g>
<g fill="#2e3436" font-family="FreeSans" font-size="12" letter-spacing="0" text-anchor="middle" transform="matrix(-.76604,-.64279,.64279,-.76604,409.08859,1115.1663)" word-spacing="0">
<path d="m298.08047,123.17084c.056-1.96799.992-2.95199 2.808-2.952 .80799,1e-005 1.46399.23201 1.968.696s.75599,1.06401.756,1.8c-1e-005,1.05601-.60001,1.91201-1.8,2.568l-1.2.648c-.52.28001-.892.55201-1.116.816s-.364.576-.42.936h4.476v1.044h-5.664c.048-.936.236-1.65599.564-2.16 .328-.51199.936-1.01999 1.824-1.524l1.104-.624c.76799-.43999 1.15199-.99999 1.152-1.68-1e-005-.45599-.16001-.83599-.48-1.14s-.72001-.45599-1.2-.456c-1.064,1e-005-1.636.67601-1.716,2.028h-1.056"/>
<path d="m304.76016,123.17084c.056-1.96799.99199-2.95199 2.808-2.952 .80799,1e-005 1.46399.23201 1.968.696s.75599,1.06401.756,1.8c-1e-005,1.05601-.60001,1.91201-1.8,2.568l-1.2.648c-.52001.28001-.89201.55201-1.116.816s-.36401.576-.42.936h4.476v1.044h-5.664c.048-.936.236-1.65599.564-2.16 .32799-.51199.93599-1.01999 1.824-1.524l1.104-.624c.76799-.43999 1.15199-.99999 1.152-1.68-1e-005-.45599-.16001-.83599-.48-1.14s-.72001-.45599-1.2-.456c-1.06401,1e-005-1.63601.67601-1.716,2.028h-1.056"/>
<path d="m311.35584,124.61084c0-.71199.06-1.33999.18-1.884s.272-.96799.456-1.272c.184-.31199.404-.56399.66-.756s.5-.31999.732-.384c.24-.064.492-.096.756-.096 1.856,1e-005 2.784,1.48801 2.784,4.464 0,1.40001-.24,2.47201-.72,3.216-.472.736-1.16,1.104-2.064,1.104-.912,0-1.604-.372-2.076-1.116-.472-.75199-.708-1.84399-.708-3.276m4.488-.024c0-2.28799-.568-3.43199-1.704-3.432s-1.704,1.15601-1.704,3.468c0,2.33601.56,3.504 1.68,3.504 .592,0 1.028-.288 1.308-.864s.42-1.46799.42-2.676"/>
</g>
<g fill="#2e3436" font-family="FreeSans" font-size="12" letter-spacing="0" text-anchor="middle" transform="matrix(.76604,.64279,-.64279,.76604,335.0014,245.46799)" word-spacing="0">
<path d="m304.75603,126.68684h-3.588v-1.116l3.864-5.352h.78v5.52h1.26v.948h-1.26v2.04h-1.056v-2.04m0-.948v-3.72l-2.664,3.72h2.664"/>
<path d="m308.00428,124.61084c0-.71199.06-1.33999.18-1.884s.272-.96799.456-1.272c.184-.31199.404-.56399.66-.756s.5-.31999.732-.384c.24-.064.492-.096.756-.096 1.856,1e-005 2.784,1.48801 2.784,4.464 0,1.40001-.24,2.47201-.72,3.216-.472.736-1.16,1.104-2.064,1.104-.912,0-1.604-.372-2.076-1.116-.472-.75199-.708-1.84399-.708-3.276m4.488-.024c0-2.28799-.568-3.43199-1.704-3.432s-1.704,1.15601-1.704,3.468c0,2.33601.56,3.504 1.68,3.504 .592,0 1.028-.288 1.308-.864s.42-1.46799.42-2.676"/>
</g>
<g fill="#2e3436" font-family="FreeSans" font-size="12" letter-spacing="0" text-anchor="middle" transform="matrix(-.86603,-.5,.5,-.86603,484.03658,1102.1275)" word-spacing="0">
<path d="m298.08047,123.17084c.056-1.96799.992-2.95199 2.808-2.952 .80799,1e-005 1.46399.23201 1.968.696s.75599,1.06401.756,1.8c-1e-005,1.05601-.60001,1.91201-1.8,2.568l-1.2.648c-.52.28001-.892.55201-1.116.816s-.364.576-.42.936h4.476v1.044h-5.664c.048-.936.236-1.65599.564-2.16 .328-.51199.936-1.01999 1.824-1.524l1.104-.624c.76799-.43999 1.15199-.99999 1.152-1.68-1e-005-.45599-.16001-.83599-.48-1.14s-.72001-.45599-1.2-.456c-1.064,1e-005-1.636.67601-1.716,2.028h-1.056"/>
<path d="m307.26816,122.66684h-1.884v-.756c.81599-.10399 1.34799-.24799 1.596-.432s.46399-.60399.648-1.26h.696v8.508h-1.056v-6.06"/>
<path d="m311.35584,124.61084c0-.71199.06-1.33999.18-1.884s.272-.96799.456-1.272c.184-.31199.404-.56399.66-.756s.5-.31999.732-.384c.24-.064.492-.096.756-.096 1.856,1e-005 2.784,1.48801 2.784,4.464 0,1.40001-.24,2.47201-.72,3.216-.472.736-1.16,1.104-2.064,1.104-.912,0-1.604-.372-2.076-1.116-.472-.75199-.708-1.84399-.708-3.276m4.488-.024c0-2.28799-.568-3.43199-1.704-3.432s-1.704,1.15601-1.704,3.468c0,2.33601.56,3.504 1.68,3.504 .592,0 1.028-.288 1.308-.864s.42-1.46799.42-2.676"/>
</g>
<g fill="#2e3436" font-family="FreeSans" font-size="12" letter-spacing="0" text-anchor="middle" transform="matrix(.86603,.5,-.5,.86603,260.05341,258.5069)" word-spacing="0">
<path d="m304.06031,121.14284c-.608,1e-005-1.028.16801-1.26.504-.224.32801-.344.76801-.36,1.32h-1.056c.04-1.83199.928-2.74799 2.664-2.748 .808,1e-005 1.44.20801 1.896.624s.696.98801.696,1.716c0,.86401-.396,1.45201-1.188,1.764 .512.17601.88.42401 1.104.744 .224.31201.336.74001.336,1.284 0,.80801-.264,1.452-.792,1.932-.52.48-1.216.72-2.088.72-1.744,0-2.68-.916-2.808-2.748h1.056c.04.61601.204,1.072.492,1.368s.72.444 1.296.444c.552,0 .984-.148 1.296-.444s.468-.72399.468-1.26c0-1.03199-.588-1.54799-1.764-1.548l-.444.012h-.132v-.9c.76-.016 1.296-.11199 1.608-.288 .32-.17599.48-.52399.48-1.044 0-.44799-.136-.79999-.408-1.056-.264-.26399-.628-.39599-1.092-.396"/>
<path d="m308.016,124.61084c0-.71199.06-1.33999.18-1.884s.272-.96799.456-1.272c.184-.31199.404-.56399.66-.756s.5-.31999.732-.384c.24-.064.492-.096.756-.096 1.85599,1e-005 2.78399,1.48801 2.784,4.464-1e-005,1.40001-.24001,2.47201-.72,3.216-.472.736-1.16,1.104-2.064,1.104-.912,0-1.604-.372-2.076-1.116-.472-.75199-.708-1.84399-.708-3.276m4.488-.024c-1e-005-2.28799-.568-3.43199-1.704-3.432s-1.704,1.15601-1.704,3.468c0,2.33601.56,3.504 1.68,3.504 .592,0 1.028-.288 1.308-.864s.41999-1.46799.42-2.676"/>
</g>
<g fill="#2e3436" font-family="FreeSans" font-size="12" letter-spacing="0" text-anchor="middle" transform="matrix(-.93969,-.34202,.34202,-.93969,555.58176,1076.2721)" word-spacing="0">
<path d="m298.08047,123.17084c.056-1.96799.992-2.95199 2.808-2.952 .80799,1e-005 1.46399.23201 1.968.696s.75599,1.06401.756,1.8c-1e-005,1.05601-.60001,1.91201-1.8,2.568l-1.2.648c-.52.28001-.892.55201-1.116.816s-.364.576-.42.936h4.476v1.044h-5.664c.048-.936.236-1.65599.564-2.16 .328-.51199.936-1.01999 1.824-1.524l1.104-.624c.76799-.43999 1.15199-.99999 1.152-1.68-1e-005-.45599-.16001-.83599-.48-1.14s-.72001-.45599-1.2-.456c-1.064,1e-005-1.636.67601-1.716,2.028h-1.056"/>
<path d="m304.67616,124.61084c0-.71199.06-1.33999.18-1.884s.272-.96799.456-1.272c.18399-.31199.40399-.56399.66-.756s.49999-.31999.732-.384c.23999-.064.49199-.096.756-.096 1.85599,1e-005 2.78399,1.48801 2.784,4.464-1e-005,1.40001-.24001,2.47201-.72,3.216-.47201.736-1.16001,1.104-2.064,1.104-.91201,0-1.60401-.372-2.076-1.116-.472-.75199-.708-1.84399-.708-3.276m4.488-.024c-1e-005-2.28799-.56801-3.43199-1.704-3.432s-1.70401,1.15601-1.704,3.468c-1e-005,2.33601.55999,3.504 1.68,3.504 .59199,0 1.02799-.288 1.308-.864s.41999-1.46799.42-2.676"/>
<path d="m311.35584,124.61084c0-.71199.06-1.33999.18-1.884s.272-.96799.456-1.272c.184-.31199.404-.56399.66-.756s.5-.31999.732-.384c.24-.064.492-.096.756-.096 1.856,1e-005 2.784,1.48801 2.784,4.464 0,1.40001-.24,2.47201-.72,3.216-.472.736-1.16,1.104-2.064,1.104-.912,0-1.604-.372-2.076-1.116-.472-.75199-.708-1.84399-.708-3.276m4.488-.024c0-2.28799-.568-3.43199-1.704-3.432s-1.704,1.15601-1.704,3.468c0,2.33601.56,3.504 1.68,3.504 .592,0 1.028-.288 1.308-.864s.42-1.46799.42-2.676"/>
</g>
<g fill="#2e3436" font-family="FreeSans" font-size="12" letter-spacing="0" text-anchor="middle" transform="matrix(.93969,.34202,-.34202,.93969,188.50823,284.36227)" word-spacing="0">
<path d="m301.42031,123.17084c.056-1.96799.992-2.95199 2.808-2.952 .808,1e-005 1.464.23201 1.968.696s.756,1.06401.756,1.8c0,1.05601-.6,1.91201-1.8,2.568l-1.2.648c-.52.28001-.892.55201-1.116.816s-.364.576-.42.936h4.476v1.044h-5.664c.048-.936.236-1.65599.564-2.16 .328-.51199.936-1.01999 1.824-1.524l1.104-.624c.768-.43999 1.152-.99999 1.152-1.68 0-.45599-.16-.83599-.48-1.14s-.72-.45599-1.2-.456c-1.064,1e-005-1.636.67601-1.716,2.028h-1.056"/>
<path d="m308.016,124.61084c0-.71199.06-1.33999.18-1.884s.272-.96799.456-1.272c.184-.31199.404-.56399.66-.756s.5-.31999.732-.384c.24-.064.492-.096.756-.096 1.85599,1e-005 2.78399,1.48801 2.784,4.464-1e-005,1.40001-.24001,2.47201-.72,3.216-.472.736-1.16,1.104-2.064,1.104-.912,0-1.604-.372-2.076-1.116-.472-.75199-.708-1.84399-.708-3.276m4.488-.024c-1e-005-2.28799-.568-3.43199-1.704-3.432s-1.704,1.15601-1.704,3.468c0,2.33601.56,3.504 1.68,3.504 .592,0 1.028-.288 1.308-.864s.41999-1.46799.42-2.676"/>
</g>
<g fill="#2e3436" font-family="FreeSans" font-size="12" letter-spacing="0" text-anchor="middle" transform="matrix(-.98481,-.17365,.17365,-.98481,621.55027,1038.3858)" word-spacing="0">
<path d="m300.60019,122.66684h-1.884v-.756c.816-.10399 1.34799-.24799 1.596-.432s.46399-.60399.648-1.26h.696v8.508h-1.056v-6.06"/>
<path d="m310.27987,124.37084c0,.75201-.068,1.41601-.204,1.992-.136.56801-.308,1.016-.516,1.344-.2.328-.444.596-.732.804-.28.2-.548.332-.804.396s-.524.096-.804.096c-.648,0-1.188-.196-1.62-.588-.424-.392-.688-.936-.79199-1.632h1.05599c.088.40801.256.724.50401.948s.55599.336.92399.336c.608,0 1.072-.276 1.392-.828 .328-.55999.496-1.35999.50401-2.4-.52801.63201-1.17601.94801-1.94401.948s-1.396-.25199-1.884-.756-.732-1.15199-.73199-1.944c-1e-005-.83199.25999-1.51599.77999-2.052 .528-.54399 1.196-.81599 2.004-.816 1.912,1e-005 2.868,1.38401 2.868,4.152m-2.88-3.228c-.488,1e-005-.892.17601-1.21199.528s-.48001.79601-.48001,1.332c0,.56801.148,1.02001.44401,1.356 .29599.32801.69999.49201 1.21199.492s.932-.16799 1.26-.504c.336-.33599.504-.76399.50401-1.284-1e-005-.55199-.16401-1.00799-.49201-1.368-.328-.36799-.74-.55199-1.236-.552"/>
<path d="m311.34413,124.61084c-1e-005-.71199.06-1.33999.18-1.884s.27199-.96799.45599-1.272c.184-.31199.404-.56399.66-.756s.5-.31999.732-.384c.24-.064.492-.096.756-.096 1.856,1e-005 2.784,1.48801 2.784,4.464 0,1.40001-.24,2.47201-.72,3.216-.472.736-1.16,1.104-2.064,1.104-.912,0-1.604-.372-2.076-1.116-.472-.75199-.708-1.84399-.70799-3.276m4.488-.024c-1e-005-2.28799-.56801-3.43199-1.70401-3.432s-1.704,1.15601-1.704,3.468c0,2.33601.56,3.504 1.68,3.504 .592,0 1.028-.288 1.308-.864s.42-1.46799.42001-2.676"/>
</g>
<g fill="#2e3436" font-family="FreeSans" font-size="12" letter-spacing="0" text-anchor="middle" transform="matrix(.98481,.17365,-.17365,.98481,122.53971,322.24857)" word-spacing="0">
<path d="m303.92831,122.66684h-1.884v-.756c.816-.10399 1.348-.24799 1.596-.432s.464-.60399.648-1.26h.696v8.508h-1.056v-6.06"/>
<path d="m308.016,124.61084c0-.71199.06-1.33999.18-1.884s.272-.96799.456-1.272c.184-.31199.404-.56399.66-.756s.5-.31999.732-.384c.24-.064.492-.096.756-.096 1.85599,1e-005 2.78399,1.48801 2.784,4.464-1e-005,1.40001-.24001,2.47201-.72,3.216-.472.736-1.16,1.104-2.064,1.104-.912,0-1.604-.372-2.076-1.116-.472-.75199-.708-1.84399-.708-3.276m4.488-.024c-1e-005-2.28799-.568-3.43199-1.704-3.432s-1.704,1.15601-1.704,3.468c0,2.33601.56,3.504 1.68,3.504 .592,0 1.028-.288 1.308-.864s.41999-1.46799.42-2.676"/>
</g>
</g>
<path d="m406.11574,483.31312-1.30236,7.38605 1.29256.22792 1.30236-7.38606-1.29256-.22791z"/>
<path d="m462.00002,372.04501c0,33.66452-40.27423,60.95501-89.95501,60.95501s-89.955-27.29049-89.955-60.95501 40.27423-60.955 89.955-60.955 89.95501,27.29049 89.95501,60.955z" fill="none" stroke="#000" stroke-width=".53049" transform="matrix(2.14894,0,0,3.17132,-427.45598,-499.55511)"/>
<g transform="matrix(.99939,-.0349,.0349,.99939,-23.51609,13.39861)">
<path d="m371.38875,480.38974v7.5h1.3125v-7.5h-1.3125z"/>
<path d="m372.70126,880.24465v-7.5h-1.3125v7.5h1.3125z"/>
</g>
<g transform="matrix(.99756,-.06976,.06976,.99756,-46.55025,27.60977)">
<path d="m371.38875,480.38974v7.5h1.3125v-7.5h-1.3125z"/>
<path d="m372.70126,880.24465v-7.5h-1.3125v7.5h1.3125z"/>
</g>
<g transform="matrix(.99452,-.10453,.10453,.99452,-69.07441,42.61614)">
<path d="m371.38875,480.38974v7.5h1.3125v-7.5h-1.3125z"/>
<path d="m372.70126,880.24465v-7.5h-1.3125v7.5h1.3125z"/>
</g>
<g transform="matrix(.99027,-.13917,.13917,.99027,-91.06114,58.39946)">
<path d="m371.38875,480.38974v7.5h1.3125v-7.5h-1.3125z"/>
<path d="m372.70126,880.24465v-7.5h-1.3125v7.5h1.3125z"/>
</g>
<g transform="matrix(.97815,-.20791,.20791,.97815,-133.31582,92.21907)">
<path d="m371.38875,480.38974v7.5h1.3125v-7.5h-1.3125z"/>
<path d="m372.70126,880.24465v-7.5h-1.3125v7.5h1.3125z"/>
</g>
<g transform="matrix(.9703,-.24192,.24192,.9703,-153.5323,110.21416)">
<path d="m371.38875,480.38974v7.5h1.3125v-7.5h-1.3125z"/>
<path d="m372.70126,880.24465v-7.5h-1.3125v7.5h1.3125z"/>
</g>
<g transform="matrix(.96126,-.27564,.27564,.96126,-173.10844,128.90383)">
<path d="m371.38875,480.38974v7.5h1.3125v-7.5h-1.3125z"/>
<path d="m372.70126,880.24465v-7.5h-1.3125v7.5h1.3125z"/>
</g>
<g transform="matrix(.95106,-.30902,.30902,.95106,-192.0204,148.26532)">
<path d="m371.38875,480.38974v7.5h1.3125v-7.5h-1.3125z"/>
<path d="m372.70126,880.24465v-7.5h-1.3125v7.5h1.3125z"/>
</g>
<g transform="matrix(.92718,-.37461,.37461,.92718,-227.76043,188.90858)">
<path d="m371.38875,480.38974v7.5h1.3125v-7.5h-1.3125z"/>
<path d="m372.70126,880.24465v-7.5h-1.3125v7.5h1.3125z"/>
</g>
<g transform="matrix(.91355,-.40674,.40674,.91355,-244.54496,210.14084)">
<path d="m371.38875,480.38974v7.5h1.3125v-7.5h-1.3125z"/>
<path d="m372.70126,880.24465v-7.5h-1.3125v7.5h1.3125z"/>
</g>
<g transform="matrix(.89879,-.43837,.43837,.89879,-260.57827,231.94594)">
<path d="m371.38875,480.38974v7.5h1.3125v-7.5h-1.3125z"/>
<path d="m372.70126,880.24465v-7.5h-1.3125v7.5h1.3125z"/>
</g>
<g transform="matrix(.88295,-.46947,.46947,.88295,-275.84082,254.29731)">
<path d="m371.38875,480.38974v7.5h1.3125v-7.5h-1.3125z"/>
<path d="m372.70126,880.24465v-7.5h-1.3125v7.5h1.3125z"/>
</g>
<g transform="matrix(.84805,-.52992,.52992,.84805,-303.98024,300.5293)">
<path d="m371.38875,480.38974v7.5h1.3125v-7.5h-1.3125z"/>
<path d="m372.70126,880.24465v-7.5h-1.3125v7.5h1.3125z"/>
</g>
<g transform="matrix(.82904,-.55919,.55919,.82904,-316.82283,324.3536)">
<path d="m371.38875,480.38974v7.5h1.3125v-7.5h-1.3125z"/>
<path d="m372.70126,880.24465v-7.5h-1.3125v7.5h1.3125z"/>
</g>
<g transform="matrix(.80902,-.58779,.58779,.80902,-328.82614,348.61158)">
<path d="m371.38875,480.38974v7.5h1.3125v-7.5h-1.3125z"/>
<path d="m372.70126,880.24465v-7.5h-1.3125v7.5h1.3125z"/>
</g>
<g transform="matrix(.78801,-.61566,.61566,.78801,-339.97555,373.2737)">
<path d="m371.38875,480.38974v7.5h1.3125v-7.5h-1.3125z"/>
<path d="m372.70126,880.24465v-7.5h-1.3125v7.5h1.3125z"/>
</g>
<g transform="matrix(.74314,-.66913,.66913,.74314,-359.65937,423.68968)">
<path d="m371.38875,480.38974v7.5h1.3125v-7.5h-1.3125z"/>
<path d="m372.70126,880.24465v-7.5h-1.3125v7.5h1.3125z"/>
</g>
<g transform="matrix(.71934,-.69466,.69466,.71934,-368.16981,449.38212)">
<path d="m371.38875,480.38974v7.5h1.3125v-7.5h-1.3125z"/>
<path d="m372.70126,880.24465v-7.5h-1.3125v7.5h1.3125z"/>
</g>
<g transform="matrix(.69466,-.71934,.71934,.69466,-375.77841,475.35592)">
<path d="m371.38875,480.38974v7.5h1.3125v-7.5h-1.3125z"/>
<path d="m372.70126,880.24465v-7.5h-1.3125v7.5h1.3125z"/>
</g>
<g transform="matrix(.66913,-.74314,.74314,.66913,-382.4759,501.57944)">
<path d="m371.38875,480.38974v7.5h1.3125v-7.5h-1.3125z"/>
<path d="m372.70126,880.24465v-7.5h-1.3125v7.5h1.3125z"/>
</g>
<g transform="matrix(.61566,-.78801,.78801,.61566,-393.10604,554.64755)">
<path d="m371.38875,480.38974v7.5h1.3125v-7.5h-1.3125z"/>
<path d="m372.70126,880.24465v-7.5h-1.3125v7.5h1.3125z"/>
</g>
<g transform="matrix(.58779,-.80902,.80902,.58779,-397.02574,581.42749)">
<path d="m371.38875,480.38974v7.5h1.3125v-7.5h-1.3125z"/>
<path d="m372.70126,880.24465v-7.5h-1.3125v7.5h1.3125z"/>
</g>
<g transform="matrix(.55919,-.82904,.82904,.55919,-400.00844,608.32791)">
<path d="m371.38875,480.38974v7.5h1.3125v-7.5h-1.3125z"/>
<path d="m372.70126,880.24465v-7.5h-1.3125v7.5h1.3125z"/>
</g>
<g transform="matrix(.52992,-.84805,.84805,.52992,-402.05051,635.31604)">
<path d="m371.38875,480.38974v7.5h1.3125v-7.5h-1.3125z"/>
<path d="m372.70126,880.24465v-7.5h-1.3125v7.5h1.3125z"/>
</g>
<g transform="matrix(.46947,-.88295,.88295,.46947,-403.30397,689.42384)">
<path d="m371.38875,480.38974v7.5h1.3125v-7.5h-1.3125z"/>
<path d="m372.70126,880.24465v-7.5h-1.3125v7.5h1.3125z"/>
</g>
<g transform="matrix(.43837,-.89879,.89879,.43837,-402.51383,716.47758)">
<path d="m371.38875,480.38974v7.5h1.3125v-7.5h-1.3125z"/>
<path d="m372.70126,880.24465v-7.5h-1.3125v7.5h1.3125z"/>
</g>
<g transform="matrix(.40674,-.91355,.91355,.40674,-400.78001,743.48727)">
<path d="m371.38875,480.38974v7.5h1.3125v-7.5h-1.3125z"/>
<path d="m372.70126,880.24465v-7.5h-1.3125v7.5h1.3125z"/>
</g>
<g transform="matrix(.37461,-.92718,.92718,.37461,-398.10462,770.41999)">
<path d="m371.38875,480.38974v7.5h1.3125v-7.5h-1.3125z"/>
<path d="m372.70126,880.24465v-7.5h-1.3125v7.5h1.3125z"/>
</g>
<g transform="matrix(.30902,-.95106,.95106,.30902,-389.94332,823.92343)">
<path d="m371.38875,480.38974v7.5h1.3125v-7.5h-1.3125z"/>
<path d="m372.70126,880.24465v-7.5h-1.3125v7.5h1.3125z"/>
</g>
<g transform="matrix(.27564,-.96126,.96126,.27564,-384.46735,850.42896)">
<path d="m371.38875,480.38974v7.5h1.3125v-7.5h-1.3125z"/>
<path d="m372.70126,880.24465v-7.5h-1.3125v7.5h1.3125z"/>
</g>
<g transform="matrix(.24192,-.9703,.9703,.24192,-378.06969,876.72723)">
<path d="m371.38875,480.38974v7.5h1.3125v-7.5h-1.3125z"/>
<path d="m372.70126,880.24465v-7.5h-1.3125v7.5h1.3125z"/>
</g>
<g transform="matrix(.20791,-.97815,.97815,.20791,-370.75813,902.78621)">
<path d="m371.38875,480.38974v7.5h1.3125v-7.5h-1.3125z"/>
<path d="m372.70126,880.24465v-7.5h-1.3125v7.5h1.3125z"/>
</g>
<g transform="matrix(.13917,-.99027,.99027,.13917,-353.43005,954.05961)">
<path d="m371.38875,480.38974v7.5h1.3125v-7.5h-1.3125z"/>
<path d="m372.70126,880.24465v-7.5h-1.3125v7.5h1.3125z"/>
</g>
<g transform="matrix(.10453,-.99452,.99452,.10453,-343.43464,979.21157)">
<path d="m371.38875,480.38974v7.5h1.3125v-7.5h-1.3125z"/>
<path d="m372.70126,880.24465v-7.5h-1.3125v7.5h1.3125z"/>
</g>
<g transform="matrix(.06976,-.99756,.99756,.06976,-332.56752,1003.9994)">
<path d="m371.38875,480.38974v7.5h1.3125v-7.5h-1.3125z"/>
<path d="m372.70126,880.24465v-7.5h-1.3125v7.5h1.3125z"/>
</g>
<g transform="matrix(.0349,-.99939,.99939,.0349,-320.84194,1028.3928)">
<path d="m371.38875,480.38974v7.5h1.3125v-7.5h-1.3125z"/>
<path d="m372.70126,880.24465v-7.5h-1.3125v7.5h1.3125z"/>
</g>
<g transform="matrix(-.0349,-.99939,.99939,-.0349,-294.87358,1075.8783)">
<path d="m371.38875,480.38974v7.5h1.3125v-7.5h-1.3125z"/>
<path d="m372.70126,880.24465v-7.5h-1.3125v7.5h1.3125z"/>
</g>
<g transform="matrix(-.06976,-.99756,.99756,-.06976,-280.66243,1098.9125)">
<path d="m371.38875,480.38974v7.5h1.3125v-7.5h-1.3125z"/>
<path d="m372.70126,880.24465v-7.5h-1.3125v7.5h1.3125z"/>
</g>
<g transform="matrix(-.10453,-.99452,.99452,-.10453,-265.65605,1121.4367)">
<path d="m371.38875,480.38974v7.5h1.3125v-7.5h-1.3125z"/>
<path d="m372.70126,880.24465v-7.5h-1.3125v7.5h1.3125z"/>
</g>
<g transform="matrix(-.13917,-.99027,.99027,-.13917,-249.87273,1143.4234)">
<path d="m371.38875,480.38974v7.5h1.3125v-7.5h-1.3125z"/>
<path d="m372.70126,880.24465v-7.5h-1.3125v7.5h1.3125z"/>
</g>
<g transform="matrix(-.20791,-.97815,.97815,-.20791,-216.05311,1185.6781)">
<path d="m371.38875,480.38974v7.5h1.3125v-7.5h-1.3125z"/>
<path d="m372.70126,880.24465v-7.5h-1.3125v7.5h1.3125z"/>
</g>
<g transform="matrix(-.24192,-.9703,.9703,-.24192,-198.05802,1205.8946)">
<path d="m371.38875,480.38974v7.5h1.3125v-7.5h-1.3125z"/>
<path d="m372.70126,880.24465v-7.5h-1.3125v7.5h1.3125z"/>
</g>
<g transform="matrix(-.27564,-.96126,.96126,-.27564,-179.36835,1225.4707)">
<path d="m371.38875,480.38974v7.5h1.3125v-7.5h-1.3125z"/>
<path d="m372.70126,880.24465v-7.5h-1.3125v7.5h1.3125z"/>
</g>
<g transform="matrix(-.30902,-.95106,.95106,-.30902,-160.00686,1244.3827)">
<path d="m371.38875,480.38974v7.5h1.3125v-7.5h-1.3125z"/>
<path d="m372.70126,880.24465v-7.5h-1.3125v7.5h1.3125z"/>
</g>
<g transform="matrix(-.37461,-.92718,.92718,-.37461,-119.3636,1280.1227)">
<path d="m371.38875,480.38974v7.5h1.3125v-7.5h-1.3125z"/>
<path d="m372.70126,880.24465v-7.5h-1.3125v7.5h1.3125z"/>
</g>
<g transform="matrix(-.40674,-.91355,.91355,-.40674,-98.13134,1296.9072)">
<path d="m371.38875,480.38974v7.5h1.3125v-7.5h-1.3125z"/>
<path d="m372.70126,880.24465v-7.5h-1.3125v7.5h1.3125z"/>
</g>
<g transform="matrix(-.43837,-.89879,.89879,-.43837,-76.32624,1312.9405)">
<path d="m371.38875,480.38974v7.5h1.3125v-7.5h-1.3125z"/>
<path d="m372.70126,880.24465v-7.5h-1.3125v7.5h1.3125z"/>
</g>
<g transform="matrix(-.46947,-.88295,.88295,-.46947,-53.97487,1328.2031)">
<path d="m371.38875,480.38974v7.5h1.3125v-7.5h-1.3125z"/>
<path d="m372.70126,880.24465v-7.5h-1.3125v7.5h1.3125z"/>
</g>
<g transform="matrix(-.52992,-.84805,.84805,-.52992,-7.74288,1356.3425)">
<path d="m371.38875,480.38974v7.5h1.3125v-7.5h-1.3125z"/>
<path d="m372.70126,880.24465v-7.5h-1.3125v7.5h1.3125z"/>
</g>
<g transform="matrix(-.55919,-.82904,.82904,-.55919,16.08142,1369.1851)">
<path d="m371.38875,480.38974v7.5h1.3125v-7.5h-1.3125z"/>
<path d="m372.70126,880.24465v-7.5h-1.3125v7.5h1.3125z"/>
</g>
<g transform="matrix(-.58779,-.80902,.80902,-.58779,40.3394,1381.1884)">
<path d="m371.38875,480.38974v7.5h1.3125v-7.5h-1.3125z"/>
<path d="m372.70126,880.24465v-7.5h-1.3125v7.5h1.3125z"/>
</g>
<g transform="matrix(-.61566,-.78801,.78801,-.61566,65.00152,1392.3378)">
<path d="m371.38875,480.38974v7.5h1.3125v-7.5h-1.3125z"/>
<path d="m372.70126,880.24465v-7.5h-1.3125v7.5h1.3125z"/>
</g>
<g transform="matrix(-.66913,-.74314,.74314,-.66913,115.4175,1412.0216)">
<path d="m371.38875,480.38974v7.5h1.3125v-7.5h-1.3125z"/>
<path d="m372.70126,880.24465v-7.5h-1.3125v7.5h1.3125z"/>
</g>
<g transform="matrix(-.69466,-.71934,.71934,-.69466,141.10995,1420.532)">
<path d="m371.38875,480.38974v7.5h1.3125v-7.5h-1.3125z"/>
<path d="m372.70126,880.24465v-7.5h-1.3125v7.5h1.3125z"/>
</g>
<g transform="matrix(-.71934,-.69466,.69466,-.71934,167.08375,1428.1406)">
<path d="m371.38875,480.38974v7.5h1.3125v-7.5h-1.3125z"/>
<path d="m372.70126,880.24465v-7.5h-1.3125v7.5h1.3125z"/>
</g>
<g transform="matrix(-.74314,-.66913,.66913,-.74314,193.30727,1434.8381)">
<path d="m371.38875,480.38974v7.5h1.3125v-7.5h-1.3125z"/>
<path d="m372.70126,880.24465v-7.5h-1.3125v7.5h1.3125z"/>
</g>
<g transform="matrix(-.78801,-.61566,.61566,-.78801,246.37538,1445.4682)">
<path d="m371.38875,480.38974v7.5h1.3125v-7.5h-1.3125z"/>
<path d="m372.70126,880.24465v-7.5h-1.3125v7.5h1.3125z"/>
</g>
<g transform="matrix(-.80902,-.58779,.58779,-.80902,273.15532,1449.3879)">
<path d="m371.38875,480.38974v7.5h1.3125v-7.5h-1.3125z"/>
<path d="m372.70126,880.24465v-7.5h-1.3125v7.5h1.3125z"/>
</g>
<g transform="matrix(-.82904,-.55919,.55919,-.82904,300.05574,1452.3706)">
<path d="m371.38875,480.38974v7.5h1.3125v-7.5h-1.3125z"/>
<path d="m372.70126,880.24465v-7.5h-1.3125v7.5h1.3125z"/>
</g>
<g transform="matrix(-.84805,-.52992,.52992,-.84805,327.04387,1454.4127)">
<path d="m371.38875,480.38974v7.5h1.3125v-7.5h-1.3125z"/>
<path d="m372.70126,880.24465v-7.5h-1.3125v7.5h1.3125z"/>
</g>
<g transform="matrix(-.88295,-.46947,.46947,-.88295,381.15167,1455.6662)">
<path d="m371.38875,480.38974v7.5h1.3125v-7.5h-1.3125z"/>
<path d="m372.70126,880.24465v-7.5h-1.3125v7.5h1.3125z"/>
</g>
<g transform="matrix(-.89879,-.43837,.43837,-.89879,408.20541,1454.8761)">
<path d="m371.38875,480.38974v7.5h1.3125v-7.5h-1.3125z"/>
<path d="m372.70126,880.24465v-7.5h-1.3125v7.5h1.3125z"/>
</g>
<g transform="matrix(-.91355,-.40674,.40674,-.91355,435.2151,1453.1423)">
<path d="m371.38875,480.38974v7.5h1.3125v-7.5h-1.3125z"/>
<path d="m372.70126,880.24465v-7.5h-1.3125v7.5h1.3125z"/>
</g>
<g transform="matrix(-.92718,-.37461,.37461,-.92718,462.14782,1450.4669)">
<path d="m371.38875,480.38974v7.5h1.3125v-7.5h-1.3125z"/>
<path d="m372.70126,880.24465v-7.5h-1.3125v7.5h1.3125z"/>
</g>
<g transform="matrix(-.95106,-.30902,.30902,-.95106,515.65126,1442.3056)">
<path d="m371.38875,480.38974v7.5h1.3125v-7.5h-1.3125z"/>
<path d="m372.70126,880.24465v-7.5h-1.3125v7.5h1.3125z"/>
</g>
<g transform="matrix(-.96126,-.27564,.27564,-.96126,542.15679,1436.8296)">
<path d="m371.38875,480.38974v7.5h1.3125v-7.5h-1.3125z"/>
<path d="m372.70126,880.24465v-7.5h-1.3125v7.5h1.3125z"/>
</g>
<g transform="matrix(-.9703,-.24192,.24192,-.9703,568.45506,1430.4319)">
<path d="m371.38875,480.38974v7.5h1.3125v-7.5h-1.3125z"/>
<path d="m372.70126,880.24465v-7.5h-1.3125v7.5h1.3125z"/>
</g>
<g transform="matrix(-.97815,-.20791,.20791,-.97815,594.51404,1423.1203)">
<path d="m371.38875,480.38974v7.5h1.3125v-7.5h-1.3125z"/>
<path d="m372.70126,880.24465v-7.5h-1.3125v7.5h1.3125z"/>
</g>
<g transform="matrix(-.99027,-.13917,.13917,-.99027,645.78744,1405.7922)">
<path d="m371.38875,480.38974v7.5h1.3125v-7.5h-1.3125z"/>
<path d="m372.70126,880.24465v-7.5h-1.3125v7.5h1.3125z"/>
</g>
<g transform="matrix(-.99452,-.10453,.10453,-.99452,670.9394,1395.7968)">
<path d="m371.38875,480.38974v7.5h1.3125v-7.5h-1.3125z"/>
<path d="m372.70126,880.24465v-7.5h-1.3125v7.5h1.3125z"/>
</g>
<g transform="matrix(-.99756,-.06976,.06976,-.99756,695.7272,1384.9297)">
<path d="m371.38875,480.38974v7.5h1.3125v-7.5h-1.3125z"/>
<path d="m372.70126,880.24465v-7.5h-1.3125v7.5h1.3125z"/>
</g>
<g transform="matrix(-.99939,-.0349,.0349,-.99939,720.12064,1373.2041)">
<path d="m371.38875,480.38974v7.5h1.3125v-7.5h-1.3125z"/>
<path d="m372.70126,880.24465v-7.5h-1.3125v7.5h1.3125z"/>
</g>
<path d="m461.74074,372.04501c0,49.53758-40.15815,89.69573-89.69573,89.69573s-89.69572-40.15815-89.69572-89.69573 40.15814-89.69572 89.69572-89.69572 89.69573,40.15814 89.69573,89.69572z" fill="none" stroke="#d3d7cf" stroke-linecap="round" stroke-linejoin="round" stroke-width=".61301" transform="matrix(1.1419,0,0,1.1419,-52.7936,255.47858)"/>
<g fill="#d3d7cf" stroke="#d3d7cf">
<path d="m200.18262,751.50494 343.72476-142.37546" fill="#d3d7cf" stroke="#d3d7cf" stroke-width=".7"/>
<path d="m300.85727,852.17959 142.37546-343.72476" fill="#d3d7cf" stroke="#d3d7cf" stroke-width=".7"/>
<path d="m443.23273,852.17959-142.37546-343.72476" fill="#d3d7cf" stroke="#d3d7cf" stroke-width=".7"/>
<path d="m543.90738,751.50494-343.72476-142.37546" fill="#d3d7cf" stroke="#d3d7cf" stroke-width=".7"/>
</g>
<path d="m371.70234,541.99797-7.44843,123.47343-60.9-53.45156 53.61562,60.53906-123.24375,7.41563 123.30938,8.03906-53.68125,60.60469 60.9-53.45156 7.44843,123.47343 8.03907-123.34218 60.53906,53.64843-53.48438-60.9 123.57188-8.07187-123.47344-7.44844 53.38594-60.83437-60.53906,53.64843-8.03907-123.34218z" fill="#afc6c5" stroke="#afc6c5"/>
<path d="m371.70234,541.99797-7.44843,123.47343-60.9-53.45156 53.61562,60.53906-123.24375,7.41563 123.30938,8.03906-53.68125,60.60469 60.9-53.45156 7.44843,123.47343 8.03907-123.34218 60.53906,53.64843-53.48438-60.9 123.57188-8.07187-123.47344-7.44844 53.38594-60.83437-60.53906,53.64843-8.03907-123.34218z" fill="#afc6c5" stroke="#afc6c5"/>
</g>
<g font-family="FreeSerif" font-size="55" letter-spacing="0" transform="matrix(0,1,-1,0,434.61527,-148.9975)" word-spacing="0">
<path d="m353.305,97.53387c-1e-005,1.06334.29332,1.72334.88,1.98 .62332.25667 2.25499.385 4.895.385h1.485c3.92331,2e-006 6.72831-.45833 8.415-1.375 1.68664-.95333 3.2083-2.91499 4.565-5.885h1.54l-2.475,9.295h-29.7v-1.045c2.01666-.14667 3.31833-.51334 3.905-1.1 .58666-.62333.87999-1.90666.88-3.85v-24.42c-1e-005-1.9433-.29334-3.2083-.88-3.795-.58667-.6233-1.88834-1.0083-3.905-1.155v-1.045h29.205l.165,7.865h-1.375c-.47669-2.45663-1.21003-4.0333-2.2-4.73s-3.04336-1.04496-6.16-1.045h-7.425c-.73335,3.5e-005-1.22834.12837-1.485.385-.22001.22003-.33001.71503-.33,1.485v12.21h8.47c2.34664,2.1e-005 3.84998-.34831 4.51-1.045 .69664-.73331 1.20997-2.12664 1.54-4.18h1.265v12.76h-1.265c-.36669-2.27332-.89836-3.72165-1.595-4.345s-2.18169-.93498-4.455-.935h-8.47v13.585"/>
</g>
<g font-family="FreeSerif" font-size="55" letter-spacing="0" text-anchor="middle" transform="matrix(0,-1,1,0,-5.84525,608.63763)" word-spacing="0">
<path d="m424.13012,65.52387v1.045c-1.46672.29337-2.47505.66004-3.025,1.1-.51338.44003-1.02672,1.37503-1.54,2.805-3.04338,8.17669-5.09671,13.78669-6.16,16.83s-2.75004,8.12167-5.06,15.235h-.825l-8.8-23.265-8.47,23.265h-.825l-10.615-29.535c-.91667-2.56664-1.74167-4.23497-2.475-5.005-.69667-.80663-1.76-1.2833-3.19-1.43v-1.045h13.475v1.045c-1.39335.07337-2.34668.23837-2.86.495-.47668.22004-.71501.6417-.715,1.265-1e-005,.66003.20165,1.50337.605,2.53l7.92,20.68 5.885-15.51-1.815-4.51c-.88002-2.19997-1.63169-3.55663-2.255-4.07-.62336-.54997-1.72335-.8433-3.3-.88v-1.045h14.685v1.045c-2.82337.0367-4.23503.67837-4.235,1.925-3e-005,.40337.49497,1.88837 1.485,4.455l7.26,18.755 6.875-18.645c.58662-1.64997.87995-3.02497.88-4.125-5e-005-.7333-.29338-1.26496-.88-1.595-.55005-.36663-1.52171-.6233-2.915-.77v-1.045h10.89"/>
</g>
<g font-family="FreeSerif" font-size="55" letter-spacing="0" transform="translate(-187.10374,-9.62453)" word-spacing="0">
<path d="m417.82445,66.56887c-1.0267.11004-1.7967.23837-2.31.385-.4767.11003-.99003.38504-1.54.825-.51336.44003-.88003,1.1367-1.1,2.09-.18336.9167-.27503,2.16336-.275,3.74v28.93h-.935l-24.31-30.25v21.56c-1e-005,2.78667.32999,4.63834.99,5.555 .65999.88 2.05333,1.375 4.18,1.485v1.045h-12.925v-1.045c2.27333-.14667 3.72167-.64167 4.345-1.485 .66-.88.99-2.73166.99-5.555v-24.255c-1.1-1.2833-1.98-2.1083-2.64-2.475-.62333-.36663-1.52167-.54996-2.695-.55v-1.045h9.405l21.175,26.62v-18.535c-3e-005-2.78664-.34836-4.60163-1.045-5.445-.66003-.87997-2.07169-1.41163-4.235-1.595v-1.045h12.925v1.045" opacity=".9"/>
</g>
<g font-family="FreeSerif" font-size="55" letter-spacing="0" text-anchor="middle" transform="matrix(-1,0,0,-1,609.82431,430.83598)" word-spacing="0">
<path d="m405.00859,94.50887c-2e-005-1.72332-.60502-3.24499-1.815-4.565-1.21001-1.35665-2.67668-2.51165-4.4-3.465s-3.44667-1.92498-5.17-2.915c-1.68667-1.02665-3.135-2.32831-4.345-3.905s-1.815-3.40997-1.815-5.5c0-2.78664.935-5.04163 2.805-6.765 1.90666-1.75996 4.14333-2.63996 6.71-2.64 1.53999,3.7e-005 3.20832.3117 5.005.935s2.87832.93504 3.245.935c.95331,3.6e-005 1.53998-.6233 1.76-1.87h1.155l1.21,11.715h-1.375c-.88002-3.22664-2.23669-5.60997-4.07-7.15-1.79668-1.53997-3.79501-2.30997-5.995-2.31-1.68668,3.5e-005-3.06167.4767-4.125,1.43s-1.595,2.1817-1.595,3.685c0,1.4667.62333,2.86003 1.87,4.18s3.31832,2.78669 6.215,4.4c3.62998,1.94335 6.25165,3.86835 7.865,5.775 1.61331,1.87001 2.41998,3.94168 2.42,6.215-2e-005,2.82334-1.08169,5.20667-3.245,7.15-2.16335,1.90666-4.82168,2.86-7.975,2.86-1.83334,0-3.70334-.31167-5.61-.935-1.87-.62334-3.025-.935-3.465-.935-.40334,0-.75167.18333-1.045.55-.29333.33-.45833.75166-.495,1.265h-1.21l-1.65-11.66h1.265c1.35667,3.33668 2.93333,5.79334 4.73,7.37s3.92332,2.365 6.38,2.365c2.01665,0 3.64832-.56834 4.895-1.705 1.24665-1.17333 1.86998-2.67666 1.87-4.51"/>
</g>
<g font-family="FreeSerif" font-size="28" letter-spacing="0" text-anchor="middle" transform="matrix(.70711,.70711,-.70711,.70711,61.78797,-200.20171)" word-spacing="0">
<path d="m399.93272,60.38336c-.52269.05602-.91469.12135-1.176.196-.24269.05602-.50402.19602-.784.42-.26135.22402-.44802.57868-.56,1.064-.0933.46668-.14002,1.10135-.14,1.904v14.728h-.476l-12.376-15.4v10.976c-1e-005,1.41867.16799,2.36134.504,2.828 .33599.448 1.04533.7 2.128.756v.532h-6.58v-.532c1.15733-.07467 1.89466-.32667 2.212-.756 .336-.448.504-1.39066.504-2.828v-12.348c-.56-.65332-1.008-1.07332-1.344-1.26-.31734-.18665-.77467-.27998-1.372-.28v-.532h4.788l10.78,13.552v-9.436c-2e-005-1.41865-.17735-2.34265-.532-2.772-.33602-.44798-1.05468-.71865-2.156-.812v-.532h6.58v.532"/>
<path d="m405.99909,76.14736c0,.54134.14933.87733.448,1.008 .31733.13067 1.148.196 2.492.196h.756c1.99733,1e-006 3.42532-.23333 4.284-.7 .85866-.48533 1.63332-1.484 2.324-2.996h.784l-1.26,4.732h-15.12v-.532c1.02667-.07467 1.68934-.26133 1.988-.56 .29867-.31733.448-.97067.448-1.96v-12.432c0-.98932-.14933-1.63332-.448-1.932-.29866-.31732-.96133-.51332-1.988-.588v-.532h14.868l.084,4.004h-.7c-.24268-1.25065-.61601-2.05332-1.12-2.408s-1.54934-.53198-3.136-.532h-3.78c-.37334,1.7e-005-.62534.06535-.756.196-.112.11202-.168.36402-.168.756v6.216h4.312c1.19466,1e-005 1.95999-.17732 2.296-.532 .35466-.37332.61599-1.08265.784-2.128h.644v6.496h-.644c-.18668-1.15733-.45734-1.89466-.812-2.212s-1.11067-.47599-2.268-.476h-4.312v6.916"/>
</g>
<g font-family="FreeSerif" font-size="28" letter-spacing="0" text-anchor="middle" transform="matrix(-.70711,-.70711,.70711,-.70711,367.5887,621.02401)" word-spacing="0">
<path d="m389.30672,74.60735c-1e-005-.87733-.30801-1.652-.924-2.324-.61601-.69066-1.36268-1.27866-2.24-1.764s-1.75467-.97999-2.632-1.484c-.85867-.52266-1.596-1.18532-2.212-1.988s-.924-1.73599-.924-2.8c0-1.41865.476-2.56665 1.428-3.444 .97066-.89598 2.10933-1.34398 3.416-1.344 .78399,1.9e-005 1.63332.15868 2.548.476s1.46532.47602 1.652.476c.48532,1.8e-005 .78399-.31732.896-.952h.588l.616,5.964h-.7c-.44801-1.64265-1.13868-2.85599-2.072-3.64-.91468-.78398-1.93201-1.17598-3.052-1.176-.85867,1.7e-005-1.55867.24268-2.1.728s-.81201,1.11068-.812,1.876c-1e-005,.74668.31733,1.45601.952,2.128s1.68933,1.41868 3.164,2.24c1.84799.98934 3.18265,1.96934 4.004,2.94 .82132.95201 1.23199,2.00667 1.232,3.164-1e-005,1.43734-.55068,2.65067-1.652,3.64-1.10135.97067-2.45468,1.456-4.06,1.456-.93334-1e-006-1.88534-.15867-2.856-.476-.95201-.31733-1.54-.476-1.764-.476-.20534,0-.38267.09333-.532.28-.14934.168-.23334.38267-.252.644h-.616l-.84-5.936h.644c.69066,1.69867 1.49333,2.94934 2.408,3.752s1.99733,1.204 3.248,1.204c1.02666,0 1.85732-.28933 2.492-.868 .63465-.59733.95199-1.36266.952-2.296"/>
<path d="m418.92022,59.85135v.532c-.74669.14935-1.26003.33602-1.54.56-.26136.22402-.52269.70002-.784,1.428-1.54936,4.16268-2.59469,7.01868-3.136,8.568s-1.40002,4.13467-2.576,7.756h-.42l-4.48-11.844-4.312,11.844h-.42l-5.404-15.036c-.46667-1.30665-.88667-2.15598-1.26-2.548-.35467-.41065-.896-.65332-1.624-.728v-.532h6.86v.532c-.70934.03735-1.19467.12135-1.456.252-.24267.11202-.36401.32668-.364.644-1e-005,.33602.10266.76535.308,1.288l4.032,10.528 2.996-7.896-.924-2.296c-.44801-1.11998-.83068-1.81065-1.148-2.072-.31734-.27998-.87734-.42932-1.68-.448v-.532h7.476v.532c-1.43735.01868-2.15602.34535-2.156.98-2e-005,.20535.25198.96135.756,2.268l3.696,9.548 3.5-9.492c.29864-.83998.44798-1.53998.448-2.1-2e-005-.37332-.14936-.64398-.448-.812-.28002-.18665-.77469-.31732-1.484-.392v-.532h5.544"/>
</g>
<g font-family="FreeSerif" font-size="28" letter-spacing="0" text-anchor="middle" transform="matrix(-.70711,.70711,-.70711,-.70711,624.82972,58.01478)" word-spacing="0">
<path d="m393.95516,74.60735c-1e-005-.87733-.30801-1.652-.924-2.324-.61601-.69066-1.36268-1.27866-2.24-1.764s-1.75468-.97999-2.632-1.484c-.85867-.52266-1.59601-1.18532-2.212-1.988s-.92401-1.73599-.924-2.8c-1e-005-1.41865.47599-2.56665 1.428-3.444 .97066-.89598 2.10932-1.34398 3.416-1.344 .78399,1.9e-005 1.63332.15868 2.548.476s1.46532.47602 1.652.476c.48532,1.8e-005 .78398-.31732.896-.952h.588l.616,5.964h-.7c-.44802-1.64265-1.13868-2.85599-2.072-3.64-.91468-.78398-1.93201-1.17598-3.052-1.176-.85868,1.7e-005-1.55868.24268-2.1.728s-.81201,1.11068-.812,1.876c-1e-005,.74668.31732,1.45601.952,2.128s1.68932,1.41868 3.164,2.24c1.84799.98934 3.18265,1.96934 4.004,2.94 .82132.95201 1.23198,2.00667 1.232,3.164-2e-005,1.43734-.55068,2.65067-1.652,3.64-1.10135.97067-2.45468,1.456-4.06,1.456-.93334-1e-006-1.88534-.15867-2.856-.476-.95201-.31733-1.54001-.476-1.764-.476-.20534,0-.38267.09333-.532.28-.14934.168-.23334.38267-.252.644h-.616l-.84-5.936h.644c.69066,1.69867 1.49333,2.94934 2.408,3.752s1.99732,1.204 3.248,1.204c1.02665,0 1.85732-.28933 2.492-.868 .63465-.59733.95199-1.36266.952-2.296"/>
<path d="m403.10066,76.14736c-1e-005,.54134.14932.87733.448,1.008 .31732.13067 1.14799.196 2.492.196h.756c1.99732,1e-006 3.42532-.23333 4.284-.7 .85865-.48533 1.63331-1.484 2.324-2.996h.784l-1.26,4.732h-15.12v-.532c1.02666-.07467 1.68933-.26133 1.988-.56 .29866-.31733.44799-.97067.448-1.96v-12.432c-1e-005-.98932-.14934-1.63332-.448-1.932-.29867-.31732-.96134-.51332-1.988-.588v-.532h14.868l.084,4.004h-.7c-.24268-1.25065-.61602-2.05332-1.12-2.408s-1.54935-.53198-3.136-.532h-3.78c-.37334,1.7e-005-.62534.06535-.756.196-.11201.11202-.16801.36402-.168.756v6.216h4.312c1.19465,1e-005 1.95998-.17732 2.296-.532 .35465-.37332.61598-1.08265.784-2.128h.644v6.496h-.644c-.18668-1.15733-.45735-1.89466-.812-2.212s-1.11068-.47599-2.268-.476h-4.312v6.916"/>
</g>
<g font-family="FreeSerif" font-size="28" letter-spacing="0" text-anchor="middle" transform="matrix(.70711,-.70711,.70711,.70711,-196.396,363.8155)" word-spacing="0">
<path d="m395.28428,60.38336c-.52268.05602-.91468.12135-1.176.196-.24268.05602-.50402.19602-.784.42-.26135.22402-.44802.57868-.56,1.064-.0933.46668-.14002,1.10135-.14,1.904v14.728h-.476l-12.376-15.4v10.976c0,1.41867.168,2.36134.504,2.828 .336.448 1.04533.7 2.128.756v.532h-6.58v-.532c1.15733-.07467 1.89467-.32667 2.212-.756 .336-.448.504-1.39066.504-2.828v-12.348c-.56-.65332-1.008-1.07332-1.344-1.26-.31733-.18665-.77467-.27998-1.372-.28v-.532h4.788l10.78,13.552v-9.436c-1e-005-1.41865-.17735-2.34265-.532-2.772-.33601-.44798-1.05468-.71865-2.156-.812v-.532h6.58v.532"/>
<path d="m421.81866,59.85135v.532c-.7467.14935-1.26003.33602-1.54.56-.26136.22402-.52269.70002-.784,1.428-1.54936,4.16268-2.59469,7.01868-3.136,8.568s-1.40002,4.13467-2.576,7.756h-.42l-4.48-11.844-4.312,11.844h-.42l-5.404-15.036c-.46667-1.30665-.88667-2.15598-1.26-2.548-.35467-.41065-.896-.65332-1.624-.728v-.532h6.86v.532c-.70934.03735-1.19468.12135-1.456.252-.24268.11202-.36401.32668-.364.644-1e-005,.33602.10266.76535.308,1.288l4.032,10.528 2.996-7.896-.924-2.296c-.44801-1.11998-.83068-1.81065-1.148-2.072-.31735-.27998-.87735-.42932-1.68-.448v-.532h7.476v.532c-1.43735.01868-2.15602.34535-2.156.98-2e-005,.20535.25198.96135.756,2.268l3.696,9.548 3.5-9.492c.29864-.83998.44797-1.53998.448-2.1-3e-005-.37332-.14936-.64398-.448-.812-.28003-.18665-.77469-.31732-1.484-.392v-.532h5.544"/>
</g>
<path d="m717.00629,296.49142c0,119.89097-97.19083,217.08179-217.08179,217.08179s-217.08179-97.19082-217.08179-217.08179 97.19083-217.08178 217.08179-217.08178 217.08179,97.19082 217.08179,217.08178z" fill="url(#linearGradient5504)" stroke="url(#linearGradient5494)" stroke-linecap="round" stroke-linejoin="round" stroke-width="10.58936" transform="matrix(.94434,0,0,.94434,-258.10097,-69.99005)"/>
<path d="m436,490.09003c0,32.5848-28.65378,59-64,59s-64-26.4152-64-59 28.65378-59 64-59 64,26.4152 64,59z" fill="url(#radialGradient5838)" transform="matrix(.72899,0,0,.72881,-28.88535,10.86076)"/>
<path d="m436,490.09003c0,32.5848-28.65378,59-64,59s-64-26.4152-64-59 28.65378-59 64-59 64,26.4152 64,59z" fill="url(#radialGradient5764)" stroke="url(#radialGradient5766)" stroke-width="1.66161" transform="matrix(.60196,0,0,.60169,-24.75851,-212.33966)"/>
<path d="m436,490.09003c0,32.5848-28.65378,59-64,59s-64-26.4152-64-59 28.65378-59 64-59 64,26.4152 64,59z" fill="url(#radialGradient5764)" stroke="url(#radialGradient5766)" stroke-width="1.66161" transform="matrix(.60196,0,0,.60169,-152.75851,-117.33966)"/>
<path d="m717.00629,296.49142c0,119.89097-97.19083,217.08179-217.08179,217.08179s-217.08179-97.19082-217.08179-217.08179 97.19083-217.08178 217.08179-217.08178 217.08179,97.19082 217.08179,217.08178z" fill="url(#linearGradient5782)" stroke="url(#linearGradient5784)" stroke-linecap="round" stroke-linejoin="round" stroke-width="10.58936" transform="matrix(.94434,0,0,.94434,-262.10097,-65.99006)"/>
<path d="m378.96875,186.03125-11.25,167.34375c-6.30671,3.8134-10.5,10.74025-10.5,18.65625h7.3125c0,.0104-2e-005,.0209 0,.0312h-7.25c0,7.916 4.19329,14.84285 10.5,18.65625l11.25,167.34375 11.25-167.3125c1.58742-.9514 3.02169-2.09633 4.3125-3.40625 1.94364-1.96829 3.50988-4.28385 4.59375-6.875 .18015-.43066.34727-.86828.5-1.3125 .61093-1.77686.99446-3.67301 1.125-5.625 .0326-.488.0625-.97241.0625-1.46875h-7.34375c2e-005-.0104 0-.0208 0-.0312h7.28125c0-3.4644-.81216-6.74998-2.25-9.65625-.004-.008.004-.0231 0-.0312-1.65601-3.3364-4.13865-6.15405-7.1875-8.25-.37988-.26182-.75939-.51215-1.15625-.75l-11.25-167.3125z" fill="#babdb6" filter="url(#filter5738)" transform="matrix(.95106,.30902,-.30902,.95106,-24.65156,-260.16438)"/>
<g transform="matrix(.95106,.30902,-.30902,.95106,-24.65156,-260.16438)">
<path d="m371.97564,186.02687-11.25,167.34375c-6.30671,3.8134-10.5,10.74025-10.5,18.65625h9.25 25 9.34375c0-7.94141-4.24406-14.88191-10.59375-18.6875l-11.25-167.3125z" fill="#c00" stroke="#a40000" stroke-linecap="round" stroke-linejoin="round" stroke-width="1.4"/>
<path d="m372.02064,558.06315-11.25-167.34375c-6.30671-3.8134-10.5-10.74025-10.5-18.65625h9.25 25 9.34375c0,7.94141-4.24406,14.88191-10.59375,18.6875l-11.25,167.3125z" fill="#3465a4" stroke="#204a87" stroke-linecap="round" stroke-linejoin="round" stroke-width="1.4"/>
<path d="m372.03125,186.96875v185.0625h12.4375 9.34375c0-7.94141-4.24406-14.88191-10.59375-18.6875l-11.1875-166.375z" fill="url(#linearGradient5563)"/>
<path d="m372.03125,372.0625v186l11.25-167.3125c6.34969-3.80559 10.59375-10.74609 10.59375-18.6875h-9.34375-12.5z" fill="url(#linearGradient5571)"/>
<path d="m371.93817,186.18278 .35355,171.29662" fill="#f2f2f2" stroke="url(#linearGradient5581)"/>
<path d="m371.93817,555.79831 .35355-168.99852" fill="#f2f2f2" stroke="url(#linearGradient5585)"/>
<path d="m372.04501,357.54501c-8.00813,0-14.5,6.49187-14.5,14.5s6.49187,14.5 14.5,14.5 14.5-6.49187 14.5-14.5-6.49187-14.5-14.5-14.5zm0,2.125c6.83656,0 12.40625,5.53844 12.40625,12.375s-5.56969,12.40625-12.40625,12.40625-12.375-5.56969-12.375-12.40625 5.53844-12.375 12.375-12.375z" fill="url(#linearGradient5601)"/>
<path d="m315.72317,359.05533c0,13.26951-6.64823,24.02658-14.84924,24.02658s-14.84924-10.75707-14.84924-24.02658 6.64823-24.02658 14.84924-24.02658 14.84924,10.75707 14.84924,24.02658z" fill="url(#linearGradient5609)" transform="matrix(.83362,0,0,.51521,121.22938,187.05693)"/>
<path d="m366.77221,363.77126c.33036-.21053.76579-.11406.97632.21629l5.30276,7.41619 4.48284,7.93872c.21053.33036.11408.7658-.21628.97633s-.7658.11407-.97633-.21628l-5.41457-7.34494-4.37103-8.00998c-.21053-.33035-.11407-.76579.21629-.97633z" fill="url(#linearGradient5661)"/>
<path d="m380.3188,366.77221c.21053.33036.11407.76579-.21629.97633l-7.48745,5.19094-7.86746,4.59465c-.33035.21053-.76579.11408-.97633-.21628s-.11407-.7658.21628-.97633l7.39244-5.34003 7.96248-4.44557c.33035-.21053.7658-.11407.97633.21629z" fill="url(#linearGradient5659)"/>
</g>
</svg>
